<svg xmlns="http://www.w3.org/2000/svg" width="1529.708" height="1529.708" viewBox="0 0 1529.708 1529.708">
  <g id="Groupe_10441" data-name="Groupe 10441" transform="translate(964.535) rotate(45)" style="isolation: isolate">
    <path id="Tracé_5968" data-name="Tracé 5968" d="M819.9,2648.828q-.761-1.5-1.518-3Q819.141,2647.323,819.9,2648.828Z" transform="translate(-630.81 -2347.541)"/>
    <path id="Tracé_5969" data-name="Tracé 5969" d="M819.423,2649.789q-.76-1.5-1.518-3Q818.661,2648.289,819.423,2649.789Z" transform="translate(-628.906 -2345.653)"/>
    <path id="Tracé_5970" data-name="Tracé 5970" d="M818.944,2650.752q-.761-1.5-1.519-3.007Q818.181,2649.249,818.944,2650.752Z" transform="translate(-627.003 -2343.765)"/>
    <path id="Tracé_5971" data-name="Tracé 5971" d="M818.466,2651.713l-1.521-3.007Z" transform="translate(-625.103 -2341.876)"/>
    <path id="Tracé_5972" data-name="Tracé 5972" d="M817.986,2652.674l-1.521-3.007Z" transform="translate(-623.199 -2339.988)"/>
    <path id="Tracé_5973" data-name="Tracé 5973" d="M748.253,2701.161a41.94,41.94,0,0,0-5.759,18.456l.012.008a46.137,46.137,0,0,0,5.643-18.547Z" transform="translate(-334.1 -2238.937)"/>
    <path id="Tracé_5974" data-name="Tracé 5974" d="M741.045,2708.616c2.942-3.22,3.853-7.208,4.285-11.373l.116.089c-2.891,3.239-4,7.15-4.3,11.367Z" transform="translate(-326.996 -2246.475)"/>
    <path id="Tracé_5975" data-name="Tracé 5975" d="M738.917,2690.738c.036-.755.018-.378,0,0Z" transform="translate(-314.284 -2260.118)"/>
    <path id="Tracé_5976" data-name="Tracé 5976" d="M739.2,2694.371l1.379-1.909-.839-.341c-.148.777-.3,1.55-.445,2.324Z" transform="translate(-316.657 -2256.542)"/>
    <path id="Tracé_5977" data-name="Tracé 5977" d="M739.633,2697.168l1.415-4.288.1.075q-.708,2.147-1.412,4.291Z" transform="translate(-318.505 -2255.051)"/>
    <path id="Tracé_5978" data-name="Tracé 5978" d="M741.625,2694.4l-1.406,4.291-.11-.085c1.827-.976,1.388-2.708,1.418-4.283Z" transform="translate(-320.399 -2252.208)"/>
    <path id="Tracé_5979" data-name="Tracé 5979" d="M742.069,2695.856q-.685,2.184-1.37,4.371l-.116-.089q.69-2.183,1.376-4.367Z" transform="translate(-322.249 -2249.37)"/>
    <path id="Tracé_5980" data-name="Tracé 5980" d="M835.163,2629.865a63.97,63.97,0,0,0-11.492-22.944Q829.418,2618.393,835.163,2629.865Z" transform="translate(-661.745 -2424.008)"/>
    <path id="Tracé_5981" data-name="Tracé 5981" d="M819.336,2659.185a54.959,54.959,0,0,0-8.633-21.527A75.137,75.137,0,0,0,819.336,2659.185Z" transform="translate(-607.461 -2363.592)"/>
    <path id="Tracé_5982" data-name="Tracé 5982" d="M840.5,2604.519c-1.462-4.852-3.5-9.384-7.23-12.969C834.637,2596.456,836.707,2600.969,840.5,2604.519Z" transform="translate(-695.561 -2454.22)"/>
    <path id="Tracé_5983" data-name="Tracé 5983" d="M836.663,2611.724c-1.477-4.843-3.425-9.425-7.233-12.969C830.866,2603.621,832.876,2608.169,836.663,2611.724Z" transform="translate(-680.325 -2440.059)"/>
    <path id="Tracé_5984" data-name="Tracé 5984" d="M841.959,2597.346c-.866-3.985-2.423-7.573-5.8-10.118C837.137,2591.146,838.757,2594.7,841.959,2597.346Z" transform="translate(-705.567 -2462.716)"/>
    <path id="Tracé_5985" data-name="Tracé 5985" d="M825.629,2626.657a17.458,17.458,0,0,0-4.359-10.133A17.724,17.724,0,0,0,825.629,2626.657Z" transform="translate(-645.088 -2405.133)"/>
    <path id="Tracé_5986" data-name="Tracé 5986" d="M817.943,2644.429a16.283,16.283,0,0,0-4.36-10.133A16.842,16.842,0,0,0,817.943,2644.429Z" transform="translate(-614.612 -2370.201)"/>
    <path id="Tracé_5987" data-name="Tracé 5987" d="M842.936,2591.137a10.249,10.249,0,0,0-4.38-7.271A9.406,9.406,0,0,0,842.936,2591.137Z" transform="translate(-713.661 -2469.326)"/>
    <path id="Tracé_5988" data-name="Tracé 5988" d="M844.378,2588.735a9.615,9.615,0,0,0-4.38-7.271A9.95,9.95,0,0,0,844.378,2588.735Z" transform="translate(-719.379 -2474.045)"/>
    <path id="Tracé_5989" data-name="Tracé 5989" d="M845.816,2586.333a9.748,9.748,0,0,0-4.377-7.271A9.792,9.792,0,0,0,845.816,2586.333Z" transform="translate(-725.091 -2478.766)"/>
    <path id="Tracé_5990" data-name="Tracé 5990" d="M850.139,2579.132a10.215,10.215,0,0,0-4.377-7.275A9.984,9.984,0,0,0,850.139,2579.132Z" transform="translate(-742.234 -2492.929)"/>
    <path id="Tracé_5991" data-name="Tracé 5991" d="M849.123,2571.859c.76,2.844,1.767,5.54,4.383,7.266C852.881,2576.2,851.81,2573.542,849.123,2571.859Z" transform="translate(-755.568 -2492.925)"/>
    <path id="Tracé_5992" data-name="Tracé 5992" d="M851.525,2567.536c.745,2.854,1.889,5.466,4.38,7.266A11.245,11.245,0,0,0,851.525,2567.536Z" transform="translate(-765.091 -2501.422)"/>
    <path id="Tracé_5993" data-name="Tracé 5993" d="M847.257,2583.932a9.909,9.909,0,0,0-4.377-7.272A9.878,9.878,0,0,0,847.257,2583.932Z" transform="translate(-730.806 -2483.488)"/>
    <path id="Tracé_5994" data-name="Tracé 5994" d="M848.7,2581.53a9.805,9.805,0,0,0-4.377-7.271A10.1,10.1,0,0,0,848.7,2581.53Z" transform="translate(-736.52 -2488.208)"/>
    <path id="Tracé_5995" data-name="Tracé 5995" d="M855.915,2569.052c-.649-2.559-1.839-4.712-4.392-5.839C852.164,2565.778,853.359,2567.928,855.915,2569.052Z" transform="translate(-765.095 -2509.919)"/>
    <path id="Tracé_5996" data-name="Tracé 5996" d="M818.433,2638.223a9.741,9.741,0,0,0-2.927-7.29A10.426,10.426,0,0,0,818.433,2638.223Z" transform="translate(-620.805 -2376.811)"/>
    <path id="Tracé_5997" data-name="Tracé 5997" d="M858.314,2565.688a8.219,8.219,0,0,0-4.389-5.836C854.491,2562.473,855.722,2564.593,858.314,2565.688Z" transform="translate(-774.617 -2516.527)"/>
    <path id="Tracé_5998" data-name="Tracé 5998" d="M821.315,2631.493q-1.464-3.64-2.927-7.284A10.148,10.148,0,0,0,821.315,2631.493Z" transform="translate(-632.231 -2390.027)"/>
    <path id="Tracé_5999" data-name="Tracé 5999" d="M860.719,2562.326c-.682-2.533-1.795-4.746-4.392-5.836C856.973,2559.048,858.1,2561.249,860.719,2562.326Z" transform="translate(-784.141 -2523.135)"/>
    <path id="Tracé_6000" data-name="Tracé 6000" d="M819.877,2634.858a10.568,10.568,0,0,0-2.93-7.287A10,10,0,0,0,819.877,2634.858Z" transform="translate(-626.519 -2383.419)"/>
    <path id="Tracé_6001" data-name="Tracé 6001" d="M822.756,2628.134q-1.464-3.643-2.927-7.287A10.56,10.56,0,0,0,822.756,2628.134Z" transform="translate(-637.945 -2396.636)"/>
    <path id="Tracé_6002" data-name="Tracé 6002" d="M850.164,2574.836c-.169-2.022-.916-3.656-2.962-4.418Q848.683,2572.625,850.164,2574.836Z" transform="translate(-746.53 -2495.757)"/>
    <path id="Tracé_6003" data-name="Tracé 6003" d="M851.6,2572.434l-2.96-4.419C848.832,2570.022,849.561,2571.666,851.6,2572.434Z" transform="translate(-752.237 -2500.481)"/>
    <path id="Tracé_6004" data-name="Tracé 6004" d="M852.561,2571a4.853,4.853,0,0,0-2.957-4.421A5.055,5.055,0,0,0,852.561,2571Z" transform="translate(-756.049 -2503.314)"/>
    <path id="Tracé_6005" data-name="Tracé 6005" d="M853.447,2565.136q1.477,2.206,2.954,4.41Q854.924,2567.338,853.447,2565.136Z" transform="translate(-771.286 -2506.138)"/>
    <path id="Tracé_6006" data-name="Tracé 6006" d="M853.521,2569.554a5.03,5.03,0,0,0-2.957-4.421A4.829,4.829,0,0,0,853.521,2569.554Z" transform="translate(-759.856 -2506.145)"/>
    <path id="Tracé_6007" data-name="Tracé 6007" d="M855.92,2566.192a4.921,4.921,0,0,0-2.954-4.421A4.836,4.836,0,0,0,855.92,2566.192Z" transform="translate(-769.379 -2512.753)"/>
    <path id="Tracé_6008" data-name="Tracé 6008" d="M858.324,2562.83q-1.481-2.21-2.957-4.422A4.622,4.622,0,0,0,858.324,2562.83Z" transform="translate(-778.903 -2519.363)"/>
    <path id="Tracé_6009" data-name="Tracé 6009" d="M861.687,2558.029a4.189,4.189,0,0,0-2.956-4.422Q860.208,2555.818,861.687,2558.029Z" transform="translate(-792.243 -2528.8)"/>
    <path id="Tracé_6010" data-name="Tracé 6010" d="M858.249,2556.97q1.481,2.207,2.957,4.41Q859.729,2559.173,858.249,2556.97Z" transform="translate(-790.332 -2522.19)"/>
    <path id="Tracé_6011" data-name="Tracé 6011" d="M860.725,2559.469c-.05-2.1-.863-3.687-2.954-4.421Q859.248,2557.257,860.725,2559.469Z" transform="translate(-788.433 -2525.968)"/>
    <path id="Tracé_6012" data-name="Tracé 6012" d="M816.545,2636.342c-.507-1-1.014-2-1.521-3C815.531,2634.34,816.038,2635.338,816.545,2636.342Z" transform="translate(-617.485 -2372.086)"/>
    <path id="Tracé_6013" data-name="Tracé 6013" d="M817.985,2632.978c-.507-1-1.014-2-1.521-3C816.971,2630.977,817.478,2631.975,817.985,2632.978Z" transform="translate(-623.195 -2378.695)"/>
    <path id="Tracé_6014" data-name="Tracé 6014" d="M819.423,2629.613q-.76-1.5-1.518-3C818.409,2627.611,818.917,2628.614,819.423,2629.613Z" transform="translate(-628.906 -2385.303)"/>
    <path id="Tracé_6015" data-name="Tracé 6015" d="M820.867,2626.251c-.507-1-1.014-2-1.521-3C819.853,2624.249,820.36,2625.253,820.867,2626.251Z" transform="translate(-634.624 -2391.912)"/>
    <path id="Tracé_6016" data-name="Tracé 6016" d="M822.305,2622.891q-.761-1.5-1.518-3Q821.543,2621.391,822.305,2622.891Z" transform="translate(-640.335 -2398.522)"/>
    <path id="Tracé_6017" data-name="Tracé 6017" d="M824.229,2618.571l-1.521-3.007Z" transform="translate(-647.956 -2407.02)"/>
    <path id="Tracé_6018" data-name="Tracé 6018" d="M824.711,2617.61q-.761-1.5-1.521-3Q823.95,2616.1,824.711,2617.61Z" transform="translate(-649.864 -2408.904)"/>
    <path id="Tracé_6019" data-name="Tracé 6019" d="M829.031,2608.966q-.756-1.5-1.518-3.007Q828.274,2607.463,829.031,2608.966Z" transform="translate(-667.008 -2425.899)"/>
    <path id="Tracé_6020" data-name="Tracé 6020" d="M829.513,2608q-.761-1.5-1.521-3.006Q828.753,2606.5,829.513,2608Z" transform="translate(-668.91 -2427.788)"/>
    <path id="Tracé_6021" data-name="Tracé 6021" d="M829.99,2607.047q-.76-1.505-1.518-3.011Q829.233,2605.544,829.99,2607.047Z" transform="translate(-670.811 -2429.679)"/>
    <path id="Tracé_6022" data-name="Tracé 6022" d="M830.47,2606.086q-.756-1.5-1.518-3.011Q829.713,2604.579,830.47,2606.086Z" transform="translate(-672.714 -2431.567)"/>
    <path id="Tracé_6023" data-name="Tracé 6023" d="M833.355,2600.8q-.756-1.508-1.519-3.01Q832.6,2599.3,833.355,2600.8Z" transform="translate(-684.151 -2441.95)"/>
    <path id="Tracé_6024" data-name="Tracé 6024" d="M833.833,2599.839l-1.518-3.006Z" transform="translate(-686.051 -2443.839)"/>
    <path id="Tracé_6025" data-name="Tracé 6025" d="M834.311,2598.878q-.757-1.5-1.516-3.007Q833.552,2597.374,834.311,2598.878Z" transform="translate(-687.951 -2445.727)"/>
    <path id="Tracé_6026" data-name="Tracé 6026" d="M801.33,2682.806c0,1.006-.006,2.007-.009,3.013C802.679,2684.816,802.169,2683.812,801.33,2682.806Z" transform="translate(-562.463 -2274.851)"/>
    <path id="Tracé_6027" data-name="Tracé 6027" d="M837.2,2593.6q-.761-1.505-1.519-3.008Q836.433,2592.091,837.2,2593.6Z" transform="translate(-699.383 -2456.112)"/>
    <path id="Tracé_6028" data-name="Tracé 6028" d="M839.594,2589.276q-.756-1.508-1.515-3.011Q838.835,2587.769,839.594,2589.276Z" transform="translate(-708.905 -2464.608)"/>
    <path id="Tracé_6029" data-name="Tracé 6029" d="M847.206,2577.14q.761,1.5,1.519,3.008Q847.968,2578.644,847.206,2577.14Z" transform="translate(-745.102 -2482.544)"/>
    <path id="Tracé_6030" data-name="Tracé 6030" d="M847.685,2576.179l1.522,3.008Z" transform="translate(-747.004 -2484.433)"/>
    <path id="Tracé_6031" data-name="Tracé 6031" d="M848.165,2575.218q.761,1.5,1.518,3.007Q848.923,2576.722,848.165,2575.218Z" transform="translate(-748.905 -2486.322)"/>
    <path id="Tracé_6032" data-name="Tracé 6032" d="M848.645,2574.257q.761,1.5,1.518,3.007Q849.407,2575.761,848.645,2574.257Z" transform="translate(-750.808 -2488.211)"/>
    <path id="Tracé_6033" data-name="Tracé 6033" d="M861.135,2552.645l1.512,3.006Z" transform="translate(-800.332 -2530.69)"/>
    <path id="Tracé_6034" data-name="Tracé 6034" d="M860.656,2553.6q.756,1.505,1.515,3.01Q861.415,2555.112,860.656,2553.6Z" transform="translate(-798.435 -2528.804)"/>
    <path id="Tracé_6035" data-name="Tracé 6035" d="M859.692,2555.044q.761,1.5,1.515,3.007Q860.451,2556.548,859.692,2555.044Z" transform="translate(-794.613 -2525.976)"/>
    <path id="Tracé_6036" data-name="Tracé 6036" d="M859.214,2556.006q.756,1.5,1.513,3.005Q859.971,2557.506,859.214,2556.006Z" transform="translate(-792.714 -2524.084)"/>
    <path id="Tracé_6037" data-name="Tracé 6037" d="M857.772,2558.407q.756,1.5,1.51,3Q858.525,2559.909,857.772,2558.407Z" transform="translate(-786.993 -2519.366)"/>
    <path id="Tracé_6038" data-name="Tracé 6038" d="M857.294,2559.37q.756,1.5,1.509,3Q858.047,2560.868,857.294,2559.37Z" transform="translate(-785.097 -2517.472)"/>
    <path id="Tracé_6039" data-name="Tracé 6039" d="M856.331,2560.809q.756,1.5,1.51,3Q857.085,2562.31,856.331,2560.809Z" transform="translate(-781.279 -2514.644)"/>
    <path id="Tracé_6040" data-name="Tracé 6040" d="M855.853,2561.771q.756,1.5,1.509,3Q856.607,2563.274,855.853,2561.771Z" transform="translate(-779.383 -2512.753)"/>
    <path id="Tracé_6041" data-name="Tracé 6041" d="M854.89,2563.21q.756,1.5,1.509,3Q855.647,2564.711,854.89,2563.21Z" transform="translate(-775.564 -2509.925)"/>
    <path id="Tracé_6042" data-name="Tracé 6042" d="M854.412,2564.172q.757,1.5,1.509,3Q855.17,2565.676,854.412,2564.172Z" transform="translate(-773.669 -2508.033)"/>
    <path id="Tracé_6043" data-name="Tracé 6043" d="M850.569,2570.9l1.516,3.01Z" transform="translate(-758.435 -2494.817)"/>
    <path id="Tracé_6044" data-name="Tracé 6044" d="M852.969,2566.573q.761,1.5,1.516,3.006Q853.728,2568.077,852.969,2566.573Z" transform="translate(-767.952 -2503.315)"/>
    <path id="Tracé_6045" data-name="Tracé 6045" d="M851.047,2569.935q.761,1.5,1.519,3.007Q851.8,2571.438,851.047,2569.935Z" transform="translate(-760.333 -2496.705)"/>
    <path id="Tracé_6046" data-name="Tracé 6046" d="M849.682,2572.464l-1.516-3.009Z" transform="translate(-748.906 -2497.652)"/>
    <path id="Tracé_6047" data-name="Tracé 6047" d="M855.365,2562.738q.774.767,1.548,1.542Q856.139,2563.505,855.365,2562.738Z" transform="translate(-777.486 -2510.855)"/>
    <path id="Tracé_6048" data-name="Tracé 6048" d="M856.805,2560.335l1.554,1.546Z" transform="translate(-783.203 -2515.576)"/>
    <path id="Tracé_6049" data-name="Tracé 6049" d="M860.166,2554.569l1.563,1.557Z" transform="translate(-796.54 -2526.909)"/>
    <path id="Tracé_6050" data-name="Tracé 6050" d="M841.255,2650.217a30.589,30.589,0,0,0-1.536-5.374q-9.591-19.47-19.413-38.828a29.205,29.205,0,0,0-3.36-4.378,32.453,32.453,0,0,0,1.5,4.655q9.742,19.746,19.641,39.414A36.785,36.785,0,0,0,841.255,2650.217Z" transform="translate(-647.894 -2434.394)"/>
    <path id="Tracé_6051" data-name="Tracé 6051" d="M833.309,2604.071a15.618,15.618,0,0,0-5.8-10.118A16.545,16.545,0,0,0,833.309,2604.071Z" transform="translate(-671.279 -2449.5)"/>
    <path id="Tracé_6052" data-name="Tracé 6052" d="M831.39,2607.428c-.836-4-2.437-7.562-5.8-10.113C826.434,2601.31,828.006,2604.889,831.39,2607.428Z" transform="translate(-663.66 -2442.889)"/>
    <path id="Tracé_6053" data-name="Tracé 6053" d="M833.833,2590.595q-.72-.717-1.438-1.436l-1.521,0a8.779,8.779,0,0,0,4.38,7.248q0-1.473,0-2.948Q834.544,2592.027,833.833,2590.595Z" transform="translate(-683.198 -2458.927)"/>
    <path id="Tracé_6054" data-name="Tracé 6054" d="M832.386,2593l-2.954-1.45a8.842,8.842,0,0,0,4.377,7.26Q833.1,2595.907,832.386,2593Z" transform="translate(-677.477 -2454.215)"/>
    <path id="Tracé_6055" data-name="Tracé 6055" d="M826.628,2603.679q-.76-1.5-1.518-3Q825.87,2602.179,826.628,2603.679Z" transform="translate(-657.479 -2436.285)"/>
    <path id="Tracé_6056" data-name="Tracé 6056" d="M812.22,2673.328q-.76-1.5-1.518-3.007Q811.463,2671.825,812.22,2673.328Z" transform="translate(-600.343 -2299.391)"/>
    <path id="Tracé_6057" data-name="Tracé 6057" d="M811.739,2674.288q-.756-1.5-1.518-3.006Q810.982,2672.784,811.739,2674.288Z" transform="translate(-598.435 -2297.505)"/>
    <path id="Tracé_6058" data-name="Tracé 6058" d="M811.259,2675.248q-.761-1.5-1.519-3.007Q810.5,2673.745,811.259,2675.248Z" transform="translate(-596.528 -2295.617)"/>
    <path id="Tracé_6059" data-name="Tracé 6059" d="M810.78,2676.207q-.761-1.5-1.521-3Q810.019,2674.7,810.78,2676.207Z" transform="translate(-594.624 -2293.729)"/>
    <path id="Tracé_6060" data-name="Tracé 6060" d="M745.861,2765.34a78.017,78.017,0,0,0,7.2-21.534C748.761,2750.351,746.665,2757.631,745.861,2765.34Z" transform="translate(-348.894 -2154.949)"/>
    <path id="Tracé_6061" data-name="Tracé 6061" d="M748.769,2760.225c2.031-2.117,1.486-4.762,1.489-7.295C748.265,2755.059,748.8,2757.7,748.769,2760.225Z" transform="translate(-354.646 -2137.019)"/>
    <path id="Tracé_6062" data-name="Tracé 6062" d="M748.293,2756.879c1.96-1.584,1.51-3.782,1.5-5.869C747.866,2752.6,748.279,2754.79,748.293,2756.879Z" transform="translate(-352.749 -2140.792)"/>
    <path id="Tracé_6063" data-name="Tracé 6063" d="M864.375,2819.187c-3.618-4.345-9.116-5.563-13.79-8.12-2.82-1.542-6.086-2.271-9.152-3.366A90.148,90.148,0,0,0,864.375,2819.187Z" transform="translate(-743.632 -2029.363)"/>
    <path id="Tracé_6064" data-name="Tracé 6064" d="M854.79,2823.031c-4.368-5.036-10.691-7.043-16.171-10.35a15.827,15.827,0,0,0-3.909-1.139c3.728,4.316,9.262,5.842,13.817,8.886C850.371,2821.658,852.687,2822.187,854.79,2823.031Z" transform="translate(-714.109 -2021.812)"/>
    <path id="Tracé_6065" data-name="Tracé 6065" d="M852,2804.336c0,.51,0,1.023,0,1.536,2.153.73,4.3,1.474,6.465,2.183s4.333,1.381,6.5,2.073l-8.6-5.792Z" transform="translate(-775.544 -2035.977)"/>
    <path id="Tracé_6066" data-name="Tracé 6066" d="M852.12,2808.74l-3-1.521Z" transform="translate(-754.162 -2030.31)"/>
    <path id="Tracé_6067" data-name="Tracé 6067" d="M853.08,2808.261l-3-1.522Z" transform="translate(-757.969 -2031.253)"/>
    <path id="Tracé_6068" data-name="Tracé 6068" d="M854.04,2807.78l-3-1.522Z" transform="translate(-761.776 -2032.198)"/>
    <path id="Tracé_6069" data-name="Tracé 6069" d="M773.324,2850.523l-4.419-2.96Z" transform="translate(-437.495 -1951.011)"/>
    <path id="Tracé_6070" data-name="Tracé 6070" d="M771.883,2851.481q-2.211-1.476-4.419-2.957Q769.675,2850,771.883,2851.481Z" transform="translate(-431.78 -1949.122)"/>
    <path id="Tracé_6071" data-name="Tracé 6071" d="M770.445,2852.444q-2.211-1.477-4.422-2.96Q768.234,2850.965,770.445,2852.444Z" transform="translate(-426.069 -1947.235)"/>
    <path id="Tracé_6072" data-name="Tracé 6072" d="M774.767,2849.56l-4.421-2.957Z" transform="translate(-443.212 -1952.898)"/>
    <path id="Tracé_6073" data-name="Tracé 6073" d="M776.208,2848.6l-4.422-2.959Z" transform="translate(-448.926 -1954.786)"/>
    <path id="Tracé_6074" data-name="Tracé 6074" d="M777.647,2847.64l-4.419-2.958Z" transform="translate(-454.638 -1956.673)"/>
    <path id="Tracé_6075" data-name="Tracé 6075" d="M779.085,2846.679l-4.416-2.96Z" transform="translate(-460.349 -1958.564)"/>
    <path id="Tracé_6076" data-name="Tracé 6076" d="M782.927,2844.28l-4.415-2.962Z" transform="translate(-475.589 -1963.286)"/>
    <path id="Tracé_6077" data-name="Tracé 6077" d="M763.747,2854.846l-3.01-1.516Z" transform="translate(-403.695 -1939.676)"/>
    <path id="Tracé_6078" data-name="Tracé 6078" d="M779.118,2844.761l-3.01-1.516Z" transform="translate(-464.65 -1959.498)"/>
    <path id="Tracé_6079" data-name="Tracé 6079" d="M780.558,2843.8q-1.5-.756-3.01-1.515Q779.056,2843.038,780.558,2843.8Z" transform="translate(-470.36 -1961.392)"/>
    <path id="Tracé_6080" data-name="Tracé 6080" d="M782.96,2842.357q-1.5-.756-3.01-1.516Q781.458,2841.6,782.96,2842.357Z" transform="translate(-479.886 -1964.222)"/>
    <path id="Tracé_6081" data-name="Tracé 6081" d="M785.358,2840.916q-1.5-.756-3.007-1.516Q783.855,2840.157,785.358,2840.916Z" transform="translate(-489.404 -1967.056)"/>
    <path id="Tracé_6082" data-name="Tracé 6082" d="M786.32,2840.44l-3.007-1.52Z" transform="translate(-493.219 -1967.997)"/>
    <path id="Tracé_6083" data-name="Tracé 6083" d="M791.6,2837.557q-1.5-.763-3-1.519Q790.1,2836.8,791.6,2837.557Z" transform="translate(-514.166 -1973.665)"/>
    <path id="Tracé_6084" data-name="Tracé 6084" d="M792.561,2837.076q-1.5-.756-3-1.518Q791.06,2836.318,792.561,2837.076Z" transform="translate(-517.977 -1974.608)"/>
    <path id="Tracé_6085" data-name="Tracé 6085" d="M778.62,2844.313q-.77-.779-1.545-1.557Q777.849,2843.533,778.62,2844.313Z" transform="translate(-467.02 -1960.46)"/>
    <path id="Tracé_6086" data-name="Tracé 6086" d="M800.568,2723.386a1239.016,1239.016,0,0,0,85.847,113c1.945,2.269,3.924,4.511,5.884,6.768.243.261.474.534.7.806q4.644,5.343,9.323,10.65c.184.2.365.4.54.608q5.125,5.783,10.281,11.532c1.068,1.187-.827,2.674-1.91,1.546a917.175,917.175,0,0,1-90.311-109.479q-11.619-16.6-22.559-33.653C797.4,2723.656,799.542,2721.865,800.568,2723.386Z" transform="translate(-664.276 -2196.225)"/>
    <path id="Tracé_6087" data-name="Tracé 6087" d="M803.492,2765.428q.774.773,1.545,1.544Q804.267,2766.2,803.492,2765.428Z" transform="translate(-571.778 -2112.453)"/>
    <path id="Tracé_6088" data-name="Tracé 6088" d="M800.129,2769.271l1.548,1.547Z" transform="translate(-558.445 -2104.901)"/>
    <path id="Tracé_6089" data-name="Tracé 6089" d="M1037.532,3477.848c-7.381-10.767-14.564-21.656-23.018-31.653a124.155,124.155,0,0,1-8.755-12.111,849.879,849.879,0,0,1-61.147-110.045c-5.18-11.2-10.37-22.394-15.711-33.517a30.589,30.589,0,0,0-4.976-7.714c-9.436-10.035-19.161-19.774-30.75-27.429-6.931-4.578-13.772-9.29-20.62-14-11.15-7.653-22.509-15.035-33.363-23.091C810.921,3197.3,788.01,3171,766.45,3143.461c-8.493-10.849-16.405-22.144-22.755-34.406-21.717-41.934-43.771-83.7-64.836-125.957-18.985-38.1-39.059-75.436-65.029-109.335-.75-.976-.833-2.461-1.2-3.623,2.447-2.067,4.336-1.05,6.21.055,6.133,3.613,12.464,6.927,18.354,10.9,38.659,26.074,75.3,54.615,107.712,88.337,28.194,29.336,54.276,60.369,76.39,94.583,24.16,37.372,44.009,77.019,61.7,117.8,8.876,20.46,18.072,40.781,27.215,61.122a50.266,50.266,0,0,0,3.867,6.256,49.576,49.576,0,0,0-1.2-5.118c-6.533-19.827-13.241-39.6-19.659-59.462a693.883,693.883,0,0,1-31.58-160.962,122.281,122.281,0,0,0-13.36-46.829,495.79,495.79,0,0,0-42-67.668c-23.108-31.618-45.836-63.5-66.924-96.538a557.758,557.758,0,0,1-35.184-65.068,481.4,481.4,0,0,1-19.2-47.48,262.158,262.158,0,0,1-11.225-46.272c-1.18-7.963-1.6-16.043-2.174-24.083-.9-12.542-1.447-25.111-2.509-37.636-1.2-14.174-2.334-28.372-5.644-42.277-.3-1.246.128-2.664.252-4.552,1.8.35,3.274.281,4.3.922a19.034,19.034,0,0,1,3.556,3.452c36.035,39.237,69.107,80.757,98.125,125.508,20.175,31.112,38.988,62.944,54.587,96.614a317.926,317.926,0,0,1,20.878,60.421c6.592,27.749,8.938,56.162,14.149,82.582,0-4.821.116-11.145-.024-17.464-.395-18.046-.273-36.076,1.856-54.021,1.4-11.775,2.978-23.543,4.947-35.236,1.376-8.164,2.764-16.472,5.507-24.236,8.879-25.146,20.16-49.195,35.9-70.888,11.441-15.776,22.144-31.984,30.854-49.453.285-.573,1.044-.91,1.895-1.621,1.115.352,2.373.746,3.992,1.251.329,2.707.836,5.26.916,7.824.225,7.115.492,14.242.35,21.356-.448,21.829-.925,43.662-1.69,65.482-.531,15.175-1.189,30.364-4.469,45.282a394.741,394.741,0,0,1-32.731,92.335c-6.361,12.71-11.975,25.827-17.3,39.009-4.264,10.546-7.781,21.409-11.254,32.251-2.387,7.442-4.8,14.984-6.02,22.668-2.423,15.27-3.185,30.643.5,45.925.943,3.914,1.462,7.929,2.2,11.894,4.8,25.9,9.733,51.75,17.239,77.051,3.437,11.591,6.85,23.27,9.015,35.136a412.716,412.716,0,0,0,21.637,75.1c7.109,18.362,13.775,36.894,20.424,55.426,2.186,6.095,4.742,11.785,9.1,16.727a33.275,33.275,0,0,1,8.3,16.284c.436,2.44,2.147,4.711,3.517,6.909,3.885,6.25,7.88,12.426,11.863,18.613.762,1.186,1.658,2.292,3.333,4.59-.664-2.946-.916-4.335-1.293-5.691-6.726-24.326-10.383-49.188-12.844-74.242-.9-9.205-1.234-18.464-1.818-27.7a358.727,358.727,0,0,1,2.817-73.851c2.776-19.309,7.352-38.193,12.18-57.041,7.188-28.061,14.994-55.927,27.132-82.362q20.489-44.631,40.981-89.264c.893-1.943,1.738-3.967,4.508-4.447,3.858.6,4.083,3.988,4.371,6.954,1.124,11.568,2.325,23.146,2.986,34.748,2.245,39.438-3.07,78.16-11.964,116.448-9.187,39.54-20.856,78.407-32.677,117.223-8.043,26.408-13.947,53.193-15.643,80.864-1.269,20.689-1.406,41.3,2.1,61.76,4.872,28.435,12.793,55.921,26.209,81.665a380.2,380.2,0,0,0,26.847,43.614c20.409,28.9,41.388,57.372,64.887,83.86,10.24,11.539,20.744,22.819,30.263,34.99,5.214,6.667,11.041,12.86,16.6,19.259-.679-2.685-1.219-5.411-2.088-8.03-2.619-7.88-5.424-15.7-8.06-23.571-8.318-24.812-12.814-50.574-18.689-75.989a268.687,268.687,0,0,1-6.652-51.473c-.9-26.566-1.127-53.155-1.575-79.735-.445-26.478,2.8-52.536,8.5-78.375,5.483-24.881,12.453-49.275,23.745-72.169,10.6-21.489,21.892-42.636,32.888-63.928a10.362,10.362,0,0,1,1.444-2.44c1.092-1.148,2.367-2.124,3.235-2.884,3.532.067,4.825,2.008,5.469,4.414a40.171,40.171,0,0,1,.824,5.62c1.99,16.965,3.6,33.987,6.029,50.892,4.843,33.653,7.832,67.412,7.376,101.434-.205,15.189-.3,30.387-.849,45.565-.35,9.713-1.115,19.433-2.245,29.089q-3.6,30.752-7.82,61.433c-2.734,19.738-5.228,39.545-8.989,59.1a420.518,420.518,0,0,0-7.918,90.592,263.281,263.281,0,0,0,4.214,39.6,29.459,29.459,0,0,0,9.324,17.144c2.449,2.245,4.8,4.6,7.153,6.945,7.046,7.053,14.128,14.065,21.088,21.2,8.117,8.325,15.884,17.008,24.214,25.113,26.571,25.85,51.562,53.148,75.42,81.5,24.146,28.691,47.938,57.69,74.593,84.155a14.971,14.971,0,0,1,4.852,10.729c.03,2.082.738,4.151,1.062,6.239a44.553,44.553,0,0,1,.6,5.567c.015.515-.786,1.059-1.411,1.835-1.9-.979-3.737-1.927-5.43-2.8-3.95,1.147-3.95,1.147-8.327.539-.964-1.98-2.177-4.249-3.2-6.6a158.9,158.9,0,0,0-26.39-42.024c-12.221-13.894-25.106-27.209-37.911-40.578-25.291-26.4-50.5-52.88-76.162-78.911-23.182-23.511-45.459-47.849-67.324-72.553-31.316-35.385-61.088-72.069-90.112-109.352a68.831,68.831,0,0,0-15.981-15.071c-3.547-2.378-7.085-4.786-10.736-6.994-20.791-12.582-43.327-21.626-65.655-30.8-21.462-8.816-43.908-15.229-65.9-22.751-13.692-4.682-27.414-9.285-41-14.253a263.191,263.191,0,0,1-42.986-20.523,805.945,805.945,0,0,1-95.776-65.406c-21.3-17.055-41.969-34.914-62.665-52.7-9.351-8.038-18.093-16.78-27.094-25.222-1.34-1.257-3.09-2.443-1.753-4.8,2.254-1.548,4.522-.463,6.782.071,29.089,6.859,58.152,13.839,87.273,20.562,61.657,14.23,117.774,40.611,169.438,76.844,29.439,20.647,56.212,44.436,81.989,69.4q26.041,25.225,52.082,50.458c-1.3-2.2-2.47-4.5-3.935-6.587C1052.354,3498.762,1044.78,3488.418,1037.532,3477.848ZM837.2,2941.65a21.92,21.92,0,0,0-1.035-4.526c-3.808-8.676-7.521-17.4-11.7-25.9-4.6-9.354-9.632-18.5-14.57-27.681a67.156,67.156,0,0,0-3.906-5.786c-1.56-3.415-2.865-6.978-4.721-10.221-14.935-26.1-30.145-52.042-44.931-78.226q-10.1-17.886-19.353-36.216a1.224,1.224,0,0,1-1.836-.484q-33.251-71.684-59.551-146.008c2.933,20.77,6.5,41.358,15.121,60.814,5.842,13.182,10.732,26.783,16.3,40.092a543.775,543.775,0,0,0,28.716,59.08,1.139,1.139,0,0,1,.282.293q22.362,35.168,44.578,70.426c7.182,11.374,14.187,22.793,20.869,34.4a8.355,8.355,0,0,1,.783,1.375c.759,1.326,1.509,2.656,2.263,3.985l1.412.751c.753,1.955,1.373,3.974,2.283,5.853.083.169.169.339.252.511,3.921,7.168,7.717,14.413,11.323,21.792q7.362,15.078,14,30.448C834.88,2938.181,836.049,2939.909,837.2,2941.65ZM682.616,2673.8a513.757,513.757,0,0,0,36.806,95.44c6.577,13.1,14.677,25.481,22.63,37.838,24.021,37.325,49.528,73.627,76.117,109.169q4.519,6.036,9.03,12.081c-8.164-16.93-16.263-33.893-25.477-50.289-13.419-23.877-28.665-46.8-43.173-70.026q-9.177-14.694-18.3-29.418c-.273-.444-.552-.883-.825-1.329q-2.718-4.376-5.442-8.748a1.34,1.34,0,0,1-.178-1c-11.978-21.379-23.125-43.167-32.007-66.075-4.285-11.057-8.843-22.015-13.556-32.9a178.525,178.525,0,0,1-11.829-39.431c-.65-3.6-1.382-7.182-2.275-10.735C675.448,2637.089,677.67,2655.662,682.616,2673.8Zm-9.448-101.2c2.577,12.847,7.245,24.984,12.449,36.951,5.756,13.246,11.406,26.544,17.138,39.8,2.067,4.782,4.054,9.611,6.4,14.257q21.272,42.193,42.716,84.291c1.649,3.239,3.378,6.438,5.113,9.635a.992.992,0,0,1,.872.542c19.389,36.851,38.885,73.712,56.957,111.241,1.263,2.18,2.512,4.368,3.775,6.548-.664-2.553-1.2-5.155-2.094-7.625-9.265-25.607-20.539-50.385-31.248-75.4-7.728-18.051-14.549-36.508-22.749-54.337-1-2.168-2.037-4.314-3.049-6.474a1.123,1.123,0,0,1-.475-.48c-11.767-23.055-23.585-46.088-35.272-69.186-11.5-22.723-22.82-45.57-35.382-67.73-5.015-8.848-10.234-17.572-15.492-26.28C672.293,2569.724,672.877,2571.16,673.168,2572.6Zm.394-8.028-.009.75c11.613,18.367,23.013,36.862,32.862,56.256q6.072,11.957,12.076,23.947a9.491,9.491,0,0,1,1.014,1.549c12.58,25.209,25.385,50.316,37.654,75.675q1.971,3.935,3.938,7.876a1.049,1.049,0,0,1,.116.543c.928,1.944,1.883,3.876,2.8,5.825,9.1,19.285,16.254,39.479,24.994,58.947,20.222,45.048,37.387,91.3,54.789,137.456,2.509,6.652,5.184,13.238,7.782,19.858-.923.967-1.071,1.931.012,2.891q.689,2.083,1.385,4.16c.238-.382.483-.777.795-1.28q-.614-6.815-.7-13.677c-4.941-19.746-9.786-39.515-15.1-59.16-2.245-8.295-4.89-16.48-7.547-24.665-13.454-35.011-28.365-69.489-44.412-103.361a1323.562,1323.562,0,0,0-70.379-129.777q-19-30.712-39.03-60.807Q675.082,2566.079,673.562,2564.575Zm10.48,7.9c-1.1-1.266-2.257-2.472-3.419-3.679a1261.8,1261.8,0,0,1,69.866,112.9,1346.709,1346.709,0,0,1,64.133,132.736c4.442,10.677,8.674,21.435,12.8,32.237a28.716,28.716,0,0,1,1.169,2.807c.181.517.338,1.045.516,1.568q7.741,20.475,14.9,41.165a1.045,1.045,0,0,1-.469,1.263c3.606,11.283,6.993,22.651,10,34.113-.344-3.273-.715-6.546-1.2-9.8-5.857-39.282-15.468-77.6-29.973-114.613-4.84-12.349-10.027-24.562-14.991-36.865-.05-.129-.074-.268-.121-.4-2.764-5.5-5.581-10.96-8.342-16.427q-9.244-18.3-19.152-36.263c-11.219-20.344-23.025-40.35-35.026-60.239C725.652,2625.277,706.08,2597.949,684.043,2572.471ZM847.81,2867.466c-1.711-10.285-4.244-20.431-6.311-30.658-3.734-18.475-10.038-36.106-17.811-53.2a711.024,711.024,0,0,0-52.6-95.244,37.39,37.39,0,0,0-3.494-4.075c5.018,8.707,9.935,17.474,14.665,26.338q9.8,18.381,18.926,37.113c6.186,12.709,11.581,25.762,17.684,38.5a.809.809,0,0,1-.217,1.014c3.473,8.956,6.625,18.036,9.985,27.034a482.976,482.976,0,0,1,23.146,87.2,12.933,12.933,0,0,0,1.142,2.919C851.256,2892.082,849.85,2879.722,847.81,2867.466Zm5.255,37.731v5.652c.4-.048.81-.1,1.213-.14Q853.673,2907.952,853.065,2905.2Zm.836,55.265-.884.007c.575,2.409,1.159,4.863,1.836,7.7C854.483,2965.61,854.156,2963.042,853.9,2960.462Zm1.747,17.307c-3.07-9.43-6.477-18.754-9.362-28.237a409.016,409.016,0,0,0-19.4-50.276,1.275,1.275,0,0,1-1.281-.744c-12.547-25.529-24.89-51.161-37.491-76.663q-10.721-21.079-21.379-42.2c-.157-.312-.255-.656-.392-.979-1.349-2.612-2.716-5.219-4.081-7.825a13.175,13.175,0,0,1-1.287-1.942q-27-51.971-53.866-104.005c-1.085-2.1-2.085-4.253-3.019-6.426-8.238-19.122-16.518-38.228-24.629-57.4-2.435-5.754-4.377-11.715-7.114-17.423q.756,5.156,1.515,10.307,23.074,65.269,50.821,128.938c14.084,28.986,28.938,57.55,45.047,85.5,17.173,29.8,34.323,59.623,50.5,90.008,12.669,23.792,22.681,48.518,31.491,73.865,1.412,4.07,3.523,7.9,5.347,11.822A59.405,59.405,0,0,0,855.648,2977.769Zm53.116-261.6a150.436,150.436,0,0,0-10.8,16.323c-8.422,15.415-16.171,31.156-21.886,47.819a126.787,126.787,0,0,0-5.943,28.476c-1.388,13.683-3.574,27.294-4.68,40.992-.907,11.213-.73,22.511-1.032,33.771l.83.024q1.482-17.7,2.963-35.4a225.461,225.461,0,0,1,7.942-42.567c7.882-27.905,17.423-55.16,30.106-81.271.931-1.917,1.693-3.918,2.476-5.9A9.762,9.762,0,0,0,908.764,2716.172Zm16.794-24.021c-3.71,5.777-8.034,10.8-10.628,16.928-7.678,18.108-15.973,36-22.66,54.465-8.387,23.146-16.118,46.613-19.771,71.1-1.6,10.765-2.4,21.658-3.342,32.511-1.047,12.026-2.085,24.06-2.672,36.115a207.844,207.844,0,0,0,.555,25.617c0-2.551-.1-5.1.018-7.649.409-9.466.641-18.95,1.432-28.384.451-5.4,1.782-10.726,2.844-16.061,2.168-10.915,4.285-21.844,6.676-32.712,1.981-9.01,4.083-18.008,6.578-26.882,2.755-9.8,5.744-19.561,9.125-29.164,4.247-12.058,8.621-24.1,13.621-35.857,8.1-19.054,13.579-38.9,18.968-58.8C926.341,2693.224,926.071,2692.981,925.558,2692.15Zm6.234-7.533c-2.031,6.314-4,12.664-5.593,19.1a388.975,388.975,0,0,1-19.181,56.485c-4.659,11.125-8.381,22.649-12.334,34.06-2.482,7.163-4.573,14.458-6.916,21.672a206.683,206.683,0,0,0-7.895,32.417,248.3,248.3,0,0,1-5.593,26.407c-3.923,14.618-4.617,29.426-3.348,44.541.712-3.045,1.388-6.1,2.147-9.134,9.656-38.616,18.9-77.327,32.3-114.919,4.92-13.8,7.987-28.25,11.868-42.41q9.4-34.273,18.748-68.558c.738-2.706,1.349-5.444,2.016-8.166C934.061,2677.924,932.859,2681.3,931.792,2684.617Zm-4.389,76.041a260.891,260.891,0,0,1-8.292,36.7c-3.12,10.433-5.682,21.035-8.7,31.5-3.078,10.692-5.981,21.462-9.727,31.922-7.12,19.878-12.823,40.158-18.167,60.551a53.96,53.96,0,0,0-1.008,7.26c1.326-3.377,2.885-6.69,3.867-10.165a385.39,385.39,0,0,1,18.683-52.139,114.389,114.389,0,0,0,4.342-11.268c5.471-16.9,11.18-33.743,16.085-50.806,2.473-8.6,3.674-17.6,4.991-26.489,2.046-13.814,3.79-27.673,5.486-41.533.913-7.478,1.462-15,1.72-22.56C932.791,2729.175,929.736,2744.846,927.4,2760.658Zm-46.672,182.8c7.533-23.332,19.051-44.916,29.2-67.116,13.9-30.4,23.182-62.215,26.293-95.56a402.894,402.894,0,0,0,1.6-54.27c-2.669,22.094-4.914,42.524-7.71,62.877a151.4,151.4,0,0,1-5.166,22.1q-5.739,19.435-12.257,38.63c-2.977,8.739-6.379,17.356-10.006,25.851a324.012,324.012,0,0,0-13.022,36.094c-2.337,7.954-5.127,15.771-7.571,23.694-.869,2.823-1.349,5.769-1.984,8.665A3.463,3.463,0,0,0,880.731,2943.454Zm16.5-81.4c3.6-11.283,6.815-22.692,10.086-34.079,2.942-10.254,5.483-20.626,8.633-30.814,4.638-15.008,7.441-30.36,9.952-45.829,2.011-12.4,4.855-24.655,7.183-37a85.087,85.087,0,0,0,1.614-16.348c-.611,1.717-1.349,3.4-1.809,5.153-4.745,18.117-9.623,36.2-14.107,54.384-3.689,14.98-7.556,29.894-12.808,44.4-10.1,27.922-17.372,56.644-24.51,85.426-4.8,19.344-9.582,38.664-11.889,58.5-.629,5.418-1.483,10.824-1.777,16.26a35.81,35.81,0,0,0,.483,6.676q1.423-5.368,2.874-10.723a1.469,1.469,0,0,1,1.907-1.089c2.094-7.754,3.108-15.739,4.724-23.6C882.759,2909.2,889.746,2885.558,897.234,2862.052ZM870.9,3044c-.744,3.446-.739,5.445.584,7.206C871.33,3049.275,871.17,3047.288,870.9,3044Zm.7,7.692v5.839A5.633,5.633,0,0,0,871.6,3051.7Zm3.669,18.07c-.795,2.915-.638,4.465.347,5.88C875.529,3074.138,875.437,3072.567,875.271,3069.765Zm19.7,80.332c-6.287-24.062-13.763-47.817-18.363-72.3a5.875,5.875,0,0,0-.872-1.708,130.819,130.819,0,0,0,5.682,36.708c4.632,14.866,8.932,29.838,13.452,44.744a33.156,33.156,0,0,0,2.147,4.691C896.377,3158.174,896,3154.048,894.971,3150.1Zm-146.149-45.07a228.761,228.761,0,0,0,22.689,34.345c19.76,25.216,40.587,49.485,65.972,69.314,10.252,8.009,21.133,15.217,31.791,22.7a29.476,29.476,0,0,0,4.923,2.321c-5.809-5.124-11.651-10.213-17.417-15.385-6.519-5.849-13.268-11.477-19.395-17.714-21.07-21.449-42.748-42.347-61.755-65.731-8.662-10.658-17.15-21.459-25.747-32.171-1.145-1.426-2.467-2.71-3.713-4.056C747.04,3100.784,747.755,3103,748.822,3105.028Zm-109.094-201.08c10.338,17.061,23.321,32.247,34.576,48.669,7.654,11.164,15.207,22.356,21.548,34.331,1,1.887,1.9,3.838,3.04,5.638,20.531,32.464,38.793,66.369,61.69,97.345a65.863,65.863,0,0,1,4.11,7.27,40.141,40.141,0,0,1-4.44-4.3,520.741,520.741,0,0,1-32.562-48.3c-5.24-8.736-10.789-17.282-16.041-26.01-6.714-11.162-13.1-22.524-19.935-33.606-6.96-11.28-14.282-22.34-21.5-33.46a13.108,13.108,0,0,0-2.292-2.269,36.734,36.734,0,0,0,1.812,5.024q25.947,50.3,52.019,100.535c2.622,5.039,5.682,9.866,8.769,14.644,20.279,31.377,43.413,60.542,68.543,88.154,1.758,1.93,3.5,3.878,5.335,5.735q19.021,19.243,38.1,38.427c3.677,3.68,7.613,7.1,11.559,10.756.765-.659,1.249-1.073,1.729-1.489,1.723,1.528,3.529,2.972,5.151,4.6,8.268,8.292,16.471,16.645,24.748,24.926a12.39,12.39,0,0,0,2.684,1.683,47.268,47.268,0,0,0-3.654-5.666c-12.69-15.036-25.026-30.4-38.324-44.881a570.689,570.689,0,0,1-43.944-54.021q-10.961-15.329-22.106-30.527c-10.528-14.351-19.845-29.472-29.19-44.6-12.2-19.759-24.9-39.215-37.541-58.7-12.123-18.691-24.009-37.558-36.8-55.781-10.611-15.119-22.337-29.463-33.71-44.039-1.791-2.3-4.264-4.062-6.456-6.05C637.658,2899.98,638.572,2902.037,639.728,2903.948Zm99.05,92.25c7.147,12.806,14.241,25.639,21.456,38.4,3.381,5.976,7.366,11.634,10.433,17.757,10.727,21.418,23.283,41.782,35.477,62.355a99.615,99.615,0,0,0,6.664,10.062c17.793,23.066,34.646,46.869,53.914,68.776,2.8,3.186,5.869,6.139,8.811,9.2q1.241,1.655,2.482,3.31-1.014-1.855-2.034-3.711c-1.085-2.088-2.04-4.256-3.283-6.248-20.8-33.369-41.284-66.944-62.579-100s-43.953-65.218-67.523-96.716a39.856,39.856,0,0,0-3.4-3.56q-1.779-2.151-3.553-4.308Q737.208,2993.86,738.778,2996.2Zm-5.688-2.091c-16.124-20.735-32.434-41.341-51.263-59.768-.732-.717-1.512-1.388-2.277-2.072a42.766,42.766,0,0,0,3.173,4.893c6.945,8.407,13.793,16.91,21.032,25.059,17.075,19.223,31.678,40.183,44.75,62.28,7.245,12.239,14.724,24.334,22.185,36.443a36.2,36.2,0,0,0,3.728,4.49,47.794,47.794,0,0,0-2.5-6.124c-4.137-7.441-8.4-14.811-12.681-22.173-4.751-8.18-9.489-16.372-14.374-24.475C741.082,3006.385,737.568,2999.863,733.09,2994.107Zm31.224,61.109c-7.147-11.753-14.309-23.5-21.379-35.3a355.553,355.553,0,0,0-37.595-51.734c-11.251-12.847-22.141-26.008-33.327-38.914-3.568-4.113-7.482-7.942-11.409-11.721a42.841,42.841,0,0,0-5.454-3.946,45.842,45.842,0,0,0,3.467,5.74c16.776,20.979,31.77,43.176,46,65.943,13.206,21.126,26.922,41.933,40.412,62.884,1.284,2,2.651,3.945,3.823,6,20.937,36.849,46.749,70.346,72.217,104.024,10.412,13.768,22.862,26,34.409,38.908a5.868,5.868,0,0,0,1.572,1,46.446,46.446,0,0,0-2.826-5.362q-18.95-27.556-38.01-55.037C797.743,3110.95,781.2,3082.976,764.315,3055.216ZM634.939,2885.259a30.61,30.61,0,0,0-9.677-4.9c.827.912,1.646,1.828,2.479,2.732a340.181,340.181,0,0,0,34.386,31.937c1.833,1.5,3.458,3.258,5.148,4.933A166.757,166.757,0,0,0,634.939,2885.259Zm245.3,296.387c-30.637-73.128-71.556-139.7-126.5-197.207-12.449-13.034-25.545-25.45-38.437-38.055a41.224,41.224,0,0,0-5.89-4.192c1.527,1.9,2.963,3.887,4.65,5.631q11.117,11.5,22.381,22.856a402.091,402.091,0,0,1,37.737,44.361c8.292,11.255,16.773,22.379,24.777,33.834s15.706,23.119,23.194,34.914c10.16,16,20.421,31.959,29.833,48.4,9.528,16.636,18.063,33.843,27.064,50.786,1.136,2.135,2.423,4.192,3.657,6.277C881.911,3186.7,881.261,3184.1,880.235,3181.646Zm11.788,35.614c-5.4-12.424-12.369-23.965-19.706-35.33-6.939-10.739-13.6-21.66-20.219-32.6-23.917-39.523-48.086-78.885-75.441-116.159-7.281-9.919-15.382-19.234-23.034-28.884-1.726-2.18-3.149-4.6-4.712-6.91a33.571,33.571,0,0,1,4.309,3.44,335.841,335.841,0,0,1,31.473,39.332c4.081,6.1,8.244,12.148,12.583,18.061,10.8,14.716,19.9,30.517,29.715,45.863,14.546,22.734,27.877,46.188,42.129,69.086a56.365,56.365,0,0,0,5.077,6.216,38.748,38.748,0,0,0-1.664-4.282c-9.691-19.027-19.724-37.862-31.364-55.8-4.517-6.964-8.926-14.012-13.022-21.228-15.151-26.685-33.472-51.194-51.5-75.921a450.659,450.659,0,0,0-50.227-58.054c-13.271-12.891-26.189-26.145-39.389-39.107-2.25-2.208-5.094-3.812-7.689-5.676q.667,1.339,1.334,2.681a56.539,56.539,0,0,1-5.611-4.027c-6.1-5.564-12.1-11.249-18.135-16.9a60.577,60.577,0,0,0,5.549,7.209c7.879,7.9,16.053,15.5,23.953,23.378,22.728,22.661,44,46.622,62.757,72.684,19.128,26.579,37.861,53.452,56.491,80.386,6.474,9.358,12.082,19.31,18.15,28.948q33,52.425,66.082,104.794a50.666,50.666,0,0,0,4.235,5.219A67.067,67.067,0,0,0,892.024,3217.26Zm18.926,41.1c-4.591-7.161-9.517-14.1-14.2-21.2a398.444,398.444,0,0,0-26.886-35.629c-11.812-14.139-23.03-28.771-34.558-43.154-1.486-1.856-3.218-3.513-4.864-5.243a47.62,47.62,0,0,0,2.772,5.1c10.047,14.6,20.175,29.147,30.219,43.753a39.883,39.883,0,0,1,2.491,4.941l-.045,0a41.4,41.4,0,0,1,4.881,4.745c7.791,10.407,15.575,20.824,23.1,31.421,4.543,6.4,9.247,12.534,15.774,17.086,2.079,1.447,3.9,3.264,5.833,4.919C915.342,3261.965,912.406,3260.637,910.95,3258.361Zm6.655-25.752q-4.564-13.05-9.279-26.056a13.3,13.3,0,0,0-1.16-2.164,92.725,92.725,0,0,0,2.025,9.148c1.83,5.777,3.873,11.492,6.038,17.156a41.238,41.238,0,0,0,3.144,5.688A23.414,23.414,0,0,0,917.6,3232.609Zm2.441,8.785,2.586,6.349A9.209,9.209,0,0,0,920.045,3241.394Zm2.894,7.466c1.421,7.219,3.636,14.117,8.152,20.081Q927.017,3258.9,922.94,3248.86ZM992.4,3354.824q-.129-2.941-.261-5.881A5.6,5.6,0,0,0,992.4,3354.824Zm11.589-183.207c3.751-14.452,8.538-28.511,13.6-42.517a28.065,28.065,0,0,1,.747-3.135c8.152-26.086,13.651-52.774,17.8-79.744,2.7-17.565,4.914-35.2,7.289-52.819a10.889,10.889,0,0,0-.543-4.964c-.178.883-.368,1.767-.531,2.656-2.924,15.943-8.339,31.094-14.309,46.106-2.622,6.592-4.434,13.508-6.593,20.283-3.668,11.518-7.242,23.067-11,34.555-5.608,17.129-11.506,34.171-14.694,51.974-2.509,14-4.766,28.052-7.322,42.046-1.317,7.222-3.17,14.348-4.534,21.564a59.386,59.386,0,0,0-1.035,10.6c-.068,12.811-.255,25.634.222,38.431.326,8.707,1.684,17.377,2.948,26.042a454.334,454.334,0,0,1,7.6-58.175,1.043,1.043,0,0,1-.353-1.009A511.894,511.894,0,0,1,1003.994,3171.617ZM991.064,3342.3q-1.725-14.275-3.451-28.553C986.423,3323.478,989.226,3332.851,991.064,3342.3Zm44.869-370.45a6.344,6.344,0,0,0-.976,1.883c-13.209,28.659-27.067,57.027-37.992,86.687-7.408,20.1-11.978,40.979-16.753,61.778-3.556,15.48-6.744,31.07-9.383,46.729-4.2,24.914-4.677,50.053-3.022,75.24.575,8.759.99,17.537,1.821,26.274,2.443,25.776,6.429,51.3,13.1,76.363,2.443,9.167,4.73,18.375,7.138,27.55a17.934,17.934,0,0,0,1.16,2.815c-1.676-8.9-3.17-17.833-5.089-26.679-5.531-25.483-10.121-51.13-13.17-77.024a268.5,268.5,0,0,1-.94-53.229c.691-8.5,1.145-17.021,1.6-25.535.913-17.117,4.33-33.843,8.25-50.438,2.882-12.2,6.67-24.184,10.187-36.227,1.856-6.364,4.075-12.624,6-18.967,2.174-7.156,4.665-14.176,7.4-21.121a913.4,913.4,0,0,1,32.3-97.5A18.634,18.634,0,0,0,1035.933,2971.853Zm7.939-10.878q-12.224,32.394-22.989,65.279c.047-.11.095-.22.139-.333l.012.009c-.386,8.414-3.612,16.125-6,24.037a58.763,58.763,0,0,1-2.915,7.262q-2.1,4.63-4.039,9.323c-.276.9-.557,1.794-.83,2.694a.992.992,0,0,1-.466.594c-8.354,20.9-14.487,42.551-20.2,64.278-6.151,23.4-10.5,47.24-11.2,71.576-.388,13.517-.99,27.025-1.343,40.542-.463,17.65,2.4,35.005,5.122,52.347q2.909,18.581,7.162,36.991a9.212,9.212,0,0,0,.291-1.934c-.988-15.377-1.919-30.762-3.04-46.129-1-13.716-2.512-27.4-3.247-41.131-.789-14.69-.839-29.42,1.815-44,3.479-19.131,7.082-38.239,10.534-57.375,3.212-17.812,8.911-34.91,14.567-52.034,3.867-11.711,7.485-23.5,11.364-35.208,3.5-10.577,7.008-21.165,10.878-31.61a197.2,197.2,0,0,0,8.644-29.312c1.367-6.738,3.034-13.419,4.754-20.077C1044.237,2971.577,1044.175,2966.394,1043.872,2960.975Zm3.5-9.125c-.587,1.528-1.181,3.052-1.762,4.579a32.09,32.09,0,0,0,.27,4.8C1048.27,2957.517,1047.8,2954.606,1047.369,2951.85Zm-37.162,251.067c10.264-34.048,20.033-68.243,28.306-102.848a388.59,388.59,0,0,0,9.436-58.935c1.112-13.7,2.032-27.434,2.286-41.169.19-10.4-.806-20.833-1.981-31.42a40.427,40.427,0,0,0-1.424,5.115c-.382,2.575-.454,5.2-.682,7.794-2.426,27.626-6.2,55.092-10.768,82.431a418.36,418.36,0,0,1-16.032,65.541,17.175,17.175,0,0,1-1.85,3.494c-4.006,12.926-7.577,26.035-10.8,39.228-.484,6.312-2.106,12.432-3.722,18.517-1.966,7.407-3.665,14.863-5.193,22.352-.7,3.584-1.394,7.17-2.056,10.754l-.015.035c-2.224,12.417-3.986,24.914-5.465,37.452-2.115,17.91-2.823,35.9.27,55.059a33.126,33.126,0,0,0,.818-4.431C991.859,3274.563,999.481,3238.5,1010.207,3202.917Zm-17.526,153.591c.106,2.265-.312,4.628,1.254,6.615Q993.308,3359.815,992.681,3356.508Zm9.869,44.242c-2.242-8.272-4.116-16.687-8.585-24.169-.6,5.68.7,11.021,2.859,16.24.893,2.162,1.444,4.463,2.337,6.621a15.663,15.663,0,0,0,4.362,6.4C1003.206,3404.146,1003,3402.414,1002.55,3400.75Zm14.341,25.707q-4.546-10.791-9.208-21.529a42.679,42.679,0,0,0-2.328-4.144,27.236,27.236,0,0,0,5.252,18.9q3.719,5.177,7.4,10.38A31.71,31.71,0,0,0,1016.892,3426.457Zm386.3,472.1c-1.53-4.388-3.33-6.518-6.035-7.894C1397.919,3893.562,1399.654,3895.747,1403.192,3898.559Zm-3.843,2.978c-.012-4-2.4-5.67-4.345-7.577A10.544,10.544,0,0,0,1399.349,3901.537Zm-5.409-15.562-3.807-5.031A7.186,7.186,0,0,0,1393.939,3885.974Zm-144.74-165c6.489,6.958,13.787,13.161,20.75,19.674a23.48,23.48,0,0,0-2.719-4.328q-16.187-17.429-32.55-34.688a12.97,12.97,0,0,0-2.669-1.811C1237.7,3706.916,1243.016,3714.351,1249.2,3720.979Zm-17.47-21.451c-1.548-4.143-5.122-6.565-8.081-9.507A26.379,26.379,0,0,0,1231.729,3699.528Zm-99.658-298.3c.569,22.494.718,45.009,1.942,67.466a298.554,298.554,0,0,0,10.377,61.535c1.489,5.516,3.188,10.975,4.8,16.46a40.069,40.069,0,0,0-.581-5.111,526.656,526.656,0,0,1-11.124-80.091q-2.255-33.984-5.13-68.027C1132.252,3396.047,1132.006,3398.642,1132.071,3401.226Zm58.81,117.973c1.166-6.465,2.5-12.9,3.47-19.4,4.721-31.654,9.665-63.277,13.855-95,1.951-14.778,2.779-29.744,3.366-44.652.581-14.685.225-29.406.255-44.11.056-25.684-2.992-51.107-6.524-76.481-2.188-15.707-4.546-31.389-7.361-47.066,0,3.662-.252,7.345.044,10.983,1.124,13.689,2.441,27.367,3.662,41.05.567,6.373,1.148,12.744,1.61,19.125a910.527,910.527,0,0,1,1.545,93.849c-.142,4.729-.99,9.434-1.257,14.164-.878,15.617-1.367,31.259-2.544,46.853-.691,9.2-2.242,18.341-3.677,27.467a640.656,640.656,0,0,0-7.559,70.672c-.036.828,0,1.655,0,2.485C1190.134,3519.157,1190.508,3519.177,1190.881,3519.2Zm-.474,130.479c-.718-4.137-1.329-8.3-2.177-12.406a235.664,235.664,0,0,1-4.2-62.324c1.3-21.307,3.455-42.549,3.375-63.961-.08-20.924,3.253-41.619,6.471-62.244,2.743-17.6,5.237-35.123,5.365-53.03.1-13.247,1.987-26.479,3.013-39.724.368-4.727.705-9.468.777-14.2.365-24.453.041-48.9-1.533-73.307-.928-14.424-2.625-28.8-3.645-43.225-.836-11.821-1.254-23.674-1.72-35.52-.2-4.955-.033-9.924-.033-16.476-3.357,3.806-5.044,6.681-5.329,10.3-.13,1.655-.119,3.322-.119,4.983-.024,20.415.214,40.833-.145,61.242-.231,13.271-1.293,26.529-2.058,39.789-.534,9.237-1.314,18.46-1.776,27.7-1,19.905-1.779,39.821-2.82,59.724-.507,9.713-1.415,19.4-2.105,29.1-.371,5.206-.733,10.409-.982,15.62q-1.935,40.526-3.8,81.049c-.1,2.135-.142,4.27-.151,6.4-.063,15.193.068,30.389-.208,45.577-.294,16.187,1.1,32.246,3.108,48.263,1.533,12.236,3.556,24.411,5.092,36.646C1185.342,3643.912,1186.892,3647.266,1190.407,3649.678Zm-8.558-10.219c-.644-5.268-1.148-10.555-1.981-15.792-4.264-26.756-7.025-53.6-5.685-80.755.374-7.579.16-15.182.211-22.773.136-21.117.869-42.205,2.707-63.252.374-4.246.418-8.532.48-12.8q.472-31.674,3.693-63.188a134.565,134.565,0,0,0,.474-14.221c-.089-22.326,2.061-44.521,3.8-66.742.614-7.8.979-15.616,1.578-23.419,2.144-27.939,2.286-55.922,1.934-83.921a29.991,29.991,0,0,0-.569-3.066c-.827,4.764-1.3,8-1.966,11.2-1.738,8.345-2.891,16.885-5.5,24.958a329.087,329.087,0,0,0-11.34,47.686c-1.468,8.886-3.322,17.712-5.2,26.518a161.228,161.228,0,0,0-3.544,29.615c-.332,13.5-1.3,27.01-1.219,40.512.133,22.051.872,44.1,1.406,66.153.332,13.751.578,27.508,1.207,41.248.5,10.884,1.551,21.741,2.284,32.616.623,9.22,1.459,18.442,1.643,27.675a387.676,387.676,0,0,0,5.148,54.447c1.669,10.29,3.081,20.634,5.181,30.836C1177.762,3628.6,1180.039,3633.979,1181.848,3639.458Zm-7.046-11.3c-.629-2.913-1.207-5.836-1.922-8.729a13.608,13.608,0,0,0-1.841-4.15C1171.018,3619.967,1171.5,3624.491,1174.8,3628.156Zm-7.117-48.807c-1.984-14.344-2.58-28.772-3.209-43.227-.682-15.614-2.307-31.188-3.52-46.779-.128-1.654-.308-3.31-.347-4.967-.616-26.323-1.168-52.648-1.841-78.967-.243-9.48-1.18-18.959-1.077-28.428.22-20.154.626-40.317,1.569-60.447.344-7.274,2.464-14.459,3.745-21.693,2.233-12.6,4.226-25.258,6.747-37.8a249.106,249.106,0,0,1,6.26-24.789,296.122,296.122,0,0,0,8.28-33.828,36.28,36.28,0,0,0,.021-4.494c-3.185,5.744-5.433,10.131-7.987,14.327-3.736,6.145-6.607,12.524-7.5,19.772a63.539,63.539,0,0,1-2.479,10.368c-7.823,26.239-11.749,53.207-14.991,80.3a119.009,119.009,0,0,0-.463,14.221c.027,23.249-.107,46.5.291,69.751.217,12.791,1.287,25.57,2.129,38.342,1.032,15.609,2.307,31.2,3.333,46.807,1.572,23.884,2.734,47.807,5.851,71.553,1.326,10.085,3.568,20.053,5.462,30.061a13.719,13.719,0,0,0,1.189,2.947C1168.678,3588.029,1168.284,3583.675,1167.685,3579.349Zm-3.31,4.771a282.54,282.54,0,0,1-5.406-39.4q-1.913-25.507-3.826-51.017c-1.121-15.121-1.966-30.266-3.366-45.358-3.737-40.219-2.746-80.544-3.049-120.843-.11-15.027,2.767-29.7,5.127-44.443,2.693-16.829,5.569-33.618,10.854-49.907q-.72-.347-1.441-.7c-2.141,4.96-4.428,9.862-6.394,14.89-9.46,24.17-15.667,49.21-19.677,74.808-.878,5.615-1.453,11.3-1.791,16.97-.611,10.178-1.352,20.374-1.269,30.558.1,11.6,1.015,23.205,1.611,34.8.184,3.55.685,7.091.7,10.638.053,15.916,1.987,31.686,3.541,47.489.673,6.837,1.225,13.687,1.934,20.52a532.844,532.844,0,0,0,11.249,67.27c2.227,9.458,3.8,19.075,6.284,28.458a138.307,138.307,0,0,0,9.17,24.649Q1166.5,3593.812,1164.375,3584.12Zm-3.968,38.282a11.015,11.015,0,0,0-5.4-6.7Q1157.707,3619.055,1160.407,3622.4Zm-5.522-6.822c-.857-3.085-3.01-5.117-5.5-6.876A11.38,11.38,0,0,0,1154.885,3615.58ZM1049.1,3512.79c-2.476-2.271-4.775-4.8-7.526-6.667-10.463-7.082-21.008-14.042-31.539-21.022a.817.817,0,0,1-.362-.121c-6.05-3.886-12.15-7.681-18.223-11.527-.134-.074-.261-.164-.389-.246q-3.02-1.908-6.034-3.814a9.634,9.634,0,0,1-1.679-1.061Q929.3,3434.3,874.328,3401.745q-11.539-6.735-22.974-13.637c-2.7-1.6-5.386-3.206-8.087-4.8-11.3-6.672-22.669-13.241-34.018-19.839a562.109,562.109,0,0,0-64.406-29.558c-13.039-5.005-25.9-10.486-38.828-15.777,23.814,12.7,47.206,26.174,70.554,39.709.071.041.068.1.113.152q14.413,7.623,28.781,15.341c15.64,8.428,31.186,17.041,46.8,25.518,9.994,5.428,20.089,10.675,30.05,16.157q16.188,8.909,32.2,18.128c10.471,6.022,20.931,12.079,31.242,18.375,15.774,9.632,31.6,19.2,47.061,29.317,14.288,9.35,28.5,18.766,43.988,26.049C1040.924,3508.816,1045.008,3510.816,1049.1,3512.79Zm-34.2-28.546c-1.655-1.427-3.271-2.9-5-4.234A794.579,794.579,0,0,0,934.9,3428.7c-24.54-14.778-48.976-29.739-73.807-44.018-11.874-6.827-24.543-12.277-36.874-18.312a34,34,0,0,0-3.763-1.37,9.548,9.548,0,0,0,1.77,1.815q2.869,1.826,5.744,3.65c46.283,26.17,91.615,54.163,136.256,82.965,9,5.808,17.951,11.708,26.921,17.571a8.069,8.069,0,0,1,3.075,2.007c.94.617,1.886,1.23,2.827,1.847,3.357.87,5.928,3.358,8.956,4.9C1008.968,3481.26,1011.942,3482.749,1014.908,3484.243Zm-171.748-52.4c16.524,10.946,33.7,20.682,52.132,28.086a55.273,55.273,0,0,0,5.566,1.691c-1.69-1-3.36-2.026-5.083-2.96q-25.56-13.851-51.153-27.651a43.9,43.9,0,0,0-4.19-1.8A17.751,17.751,0,0,0,843.16,3431.842Zm-41.6-28.339a42.518,42.518,0,0,0,4.164,3.654q12.5,8.439,25.124,16.693a27.883,27.883,0,0,0,4.552,2.078c-1.706-1.359-3.369-2.779-5.154-4.021-7-4.883-14.012-9.75-21.1-14.5-2.334-1.566-4.9-2.779-7.363-4.156l-3.072-1.84Q800.139,3402.455,801.562,3403.5Zm-42.221-34.282c9.558,7.01,19.078,14.089,28.826,20.833,12.87,8.9,25.96,17.491,38.923,26.257,27.4,18.53,56.856,33.289,86.657,47.406,27.476,13.016,56.106,23.006,85.043,32.2,7.206,2.286,14.137,5.451,21.2,8.182,1.726.667,3.5,1.215,5.246,1.818-4.377-4.456-9.988-7.007-15.463-9.653-19.851-9.591-39.8-18.979-59.688-28.5-14.33-6.856-28.6-13.837-42.929-20.685-11.978-5.72-23.956-11.45-36.029-16.962-24.87-11.354-48.155-25.527-71.435-39.737-12.746-7.78-25.661-15.283-38.564-22.8a39.611,39.611,0,0,0-6.183-2.462A44.522,44.522,0,0,0,759.341,3369.221ZM688.4,3314.372c.264.233.525.46.786.688a53.484,53.484,0,0,0,5.009,4.907c20.581,15.635,41.619,30.529,64.578,42.641,13.182,6.952,25.964,14.727,38.541,22.737,27.411,17.458,55.2,34.145,85.15,46.992,8.485,3.639,16.652,8.006,24.985,11.995q39.1,18.71,78.231,37.37a35.548,35.548,0,0,0,3.707,1.353,33.917,33.917,0,0,0-4.549-3.876q-25.2-15.352-50.512-30.53c-1.219-.736-2.527-1.328-3.707-2.116-26.1-17.389-54.433-30.863-81.505-46.535-21.563-12.479-43.689-23.858-65.72-35.444-8.808-4.635-17.408-9.668-26.037-14.638a14.662,14.662,0,0,1-2.7-2.191c-21.85-11.4-43.866-22.493-65.791-33.755Zm298.172,132.244c-36.049-33.6-75.39-62.511-120.013-83.84a454.306,454.306,0,0,0-73.528-27.994c-1.693-.474-3.44-.766-5.166-1.124,1.515.883,3,1.835,4.576,2.6,24.988,12.069,50.524,23.134,74.871,36.38,39.395,21.439,77.977,44.356,113.558,71.916,2.675,2.073,5.664,3.742,8.526,5.576A26.428,26.428,0,0,0,986.575,3446.616Zm12.915,15.231c-5.587-4.009-11.011-8.244-16.435-12.469-23.045-17.959-47.713-33.45-72.457-48.942-34.267-21.449-70.337-39.305-106.769-56.557a330.674,330.674,0,0,0-68.982-24.132c-12.476-2.812-24.8-6.279-37.209-9.4-1.726-.433-3.508-.638-5.27-.928,5.925,3.923,12.672,5.6,19.484,7.092l.068-.064c2.7.264,5.273.83,7.221,2.92h0a60.592,60.592,0,0,1,6.826,1.614c45.667,16.308,89.175,37.491,132.368,59.291,15.433,7.788,30.166,17.01,44.953,26.015,20.465,12.461,40.845,25.075,60.963,38.09,27.93,18.062,54.193,38.407,79.768,59.649a63.9,63.9,0,0,0,6.474,4.327C1034.119,3492.164,1018.318,3475.354,999.49,3461.847Z" transform="translate(-612.629 -2545.242)"/>
    <path id="Tracé_6090" data-name="Tracé 6090" d="M795.812,2689.083l.089.087Z" transform="translate(-539.866 -2262.513)"/>
    <path id="Tracé_6091" data-name="Tracé 6091" d="M835.016,2663.686q31.37,27.539,59.836,57.956c.2.213.4.421.587.637q24.573,26.3,46.844,54.718a.95.95,0,0,1-1.477,1.192q-5.765-6.886-11.649-13.68a14.26,14.26,0,0,1-4.73-5.4c-1.145-1.308-2.3-2.609-3.452-3.912a18.4,18.4,0,0,1-4.585-5.2,1031.762,1031.762,0,0,0-83.537-83.3C831.087,2665.13,833.222,2662.109,835.016,2663.686Z" transform="translate(-794.346 -2313.304)"/>
    <path id="Tracé_6092" data-name="Tracé 6092" d="M847.789,2686.763l-1.551-1.547Z" transform="translate(-741.296 -2270.117)"/>
    <path id="Tracé_6093" data-name="Tracé 6093" d="M851.633,2682.443c-.516-.519-1.035-1.036-1.551-1.551C850.6,2681.407,851.116,2681.924,851.633,2682.443Z" transform="translate(-756.535 -2278.613)"/>
    <path id="Tracé_6094" data-name="Tracé 6094" d="M852.115,2681.964l-1.554-1.552Z" transform="translate(-758.442 -2279.556)"/>
    <path id="Tracé_6095" data-name="Tracé 6095" d="M852.593,2681.484l-1.551-1.552Z" transform="translate(-760.346 -2280.501)"/>
    <path id="Tracé_6096" data-name="Tracé 6096" d="M853.074,2681l-1.551-1.552Z" transform="translate(-762.254 -2281.443)"/>
    <path id="Tracé_6097" data-name="Tracé 6097" d="M853.554,2680.526c-.516-.52-1.035-1.035-1.551-1.555C852.519,2679.491,853.038,2680.007,853.554,2680.526Z" transform="translate(-764.157 -2282.389)"/>
    <path id="Tracé_6098" data-name="Tracé 6098" d="M854.037,2680.044l-1.554-1.553Z" transform="translate(-766.063 -2283.332)"/>
    <path id="Tracé_6099" data-name="Tracé 6099" d="M854.517,2679.563q-.778-.775-1.554-1.552Q853.737,2678.786,854.517,2679.563Z" transform="translate(-767.967 -2284.276)"/>
    <path id="Tracé_6100" data-name="Tracé 6100" d="M855,2679.084l-1.554-1.554Z" transform="translate(-769.875 -2285.221)"/>
    <path id="Tracé_6101" data-name="Tracé 6101" d="M855.478,2678.6l-1.554-1.555Z" transform="translate(-771.778 -2286.165)"/>
    <path id="Tracé_6102" data-name="Tracé 6102" d="M855.958,2678.124l-1.554-1.553Z" transform="translate(-773.681 -2287.109)"/>
    <path id="Tracé_6103" data-name="Tracé 6103" d="M856.438,2677.643l-1.554-1.554Z" transform="translate(-775.585 -2288.053)"/>
    <path id="Tracé_6104" data-name="Tracé 6104" d="M856.916,2677.163l-1.551-1.554Z" transform="translate(-777.489 -2288.998)"/>
    <path id="Tracé_6105" data-name="Tracé 6105" d="M857.4,2676.685q-.774-.779-1.554-1.557Q856.624,2675.906,857.4,2676.685Z" transform="translate(-779.396 -2289.943)"/>
    <path id="Tracé_6106" data-name="Tracé 6106" d="M857.879,2676.2q-.774-.779-1.554-1.557Q857.1,2675.425,857.879,2676.2Z" transform="translate(-781.299 -2290.888)"/>
    <path id="Tracé_6107" data-name="Tracé 6107" d="M858.359,2675.721l-1.554-1.554Z" transform="translate(-783.203 -2291.832)"/>
    <path id="Tracé_6108" data-name="Tracé 6108" d="M858.839,2675.242q-.774-.778-1.554-1.556Q858.064,2674.464,858.839,2675.242Z" transform="translate(-785.106 -2292.777)"/>
    <path id="Tracé_6109" data-name="Tracé 6109" d="M859.321,2674.763l-1.557-1.558Z" transform="translate(-787.009 -2293.722)"/>
    <path id="Tracé_6110" data-name="Tracé 6110" d="M859.8,2674.281q-.774-.778-1.554-1.556Q859.023,2673.5,859.8,2674.281Z" transform="translate(-788.913 -2294.667)"/>
    <path id="Tracé_6111" data-name="Tracé 6111" d="M860.279,2673.8c-.519-.519-1.035-1.038-1.554-1.558C859.244,2672.764,859.76,2673.283,860.279,2673.8Z" transform="translate(-790.817 -2295.612)"/>
  </g>
</svg>
