<svg xmlns="http://www.w3.org/2000/svg" width="1322.964" height="1024.105" viewBox="0 0 1322.964 1024.105">
  <path id="Tracé_23058" data-name="Tracé 23058" d="M789.7,2543.315,512.09,2867.855l132.254,369.14,443.322,54.345,105.065-430.1Z" transform="translate(-40.157 -2480.336)" fill="none" stroke="#000" stroke-miterlimit="10" stroke-width="3"/>
  <path id="Tracé_23059" data-name="Tracé 23059" d="M925.361,2540.613,545.986,2736.745l-16.466,391.771,390.236,217.264,259.275-358.894Z" transform="translate(-26.457 -2482.46)" fill="none" stroke="#000" stroke-miterlimit="10" stroke-width="3"/>
  <g id="Groupe_10323" data-name="Groupe 10323" transform="translate(1100.855) rotate(71)" style="isolation: isolate">
    <path id="Tracé_5968" data-name="Tracé 5968" d="M819.681,2648.388q-.649-1.283-1.3-2.564Q819.031,2647.1,819.681,2648.388Z" transform="translate(-658.281 -2391.226)"/>
    <path id="Tracé_5969" data-name="Tracé 5969" d="M819.2,2649.349q-.649-1.284-1.3-2.565Q818.551,2648.069,819.2,2649.349Z" transform="translate(-656.586 -2389.754)"/>
    <path id="Tracé_5970" data-name="Tracé 5970" d="M818.721,2650.312q-.649-1.284-1.3-2.567Q818.07,2649.028,818.721,2650.312Z" transform="translate(-654.891 -2388.284)"/>
    <path id="Tracé_5971" data-name="Tracé 5971" d="M818.243,2651.272l-1.3-2.567Z" transform="translate(-653.199 -2386.813)"/>
    <path id="Tracé_5972" data-name="Tracé 5972" d="M817.764,2652.233l-1.3-2.566Z" transform="translate(-651.504 -2385.341)"/>
    <path id="Tracé_5973" data-name="Tracé 5973" d="M747.409,2701.149a35.8,35.8,0,0,0-4.916,15.753l.01.007a39.38,39.38,0,0,0,4.817-15.83Z" transform="translate(-393.911 -2306.619)"/>
    <path id="Tracé_5974" data-name="Tracé 5974" d="M741.045,2706.95c2.511-2.749,3.288-6.153,3.658-9.707l.1.076a15.609,15.609,0,0,0-3.668,9.7Z" transform="translate(-387.635 -2312.492)"/>
    <path id="Tracé_5975" data-name="Tracé 5975" d="M738.917,2690.674c.031-.645.016-.323,0,0Z" transform="translate(-376.473 -2323.12)"/>
    <path id="Tracé_5976" data-name="Tracé 5976" d="M739.2,2694.042l1.177-1.629-.716-.291c-.127.663-.253,1.323-.38,1.984Z" transform="translate(-378.54 -2320.334)"/>
    <path id="Tracé_5977" data-name="Tracé 5977" d="M739.633,2696.54l1.208-3.66.081.064q-.6,1.833-1.205,3.663Z" transform="translate(-380.181 -2319.172)"/>
    <path id="Tracé_5978" data-name="Tracé 5978" d="M741.4,2694.393l-1.2,3.662-.094-.073c1.559-.833,1.185-2.312,1.21-3.656Z" transform="translate(-381.867 -2316.958)"/>
    <path id="Tracé_5979" data-name="Tracé 5979" d="M741.851,2695.844q-.585,1.864-1.169,3.731l-.1-.076q.589-1.864,1.175-3.728Z" transform="translate(-383.515 -2314.747)"/>
    <path id="Tracé_5980" data-name="Tracé 5980" d="M833.48,2626.5a54.6,54.6,0,0,0-9.809-19.583Q828.576,2616.713,833.48,2626.5Z" transform="translate(-685.46 -2450.796)"/>
    <path id="Tracé_5981" data-name="Tracé 5981" d="M818.071,2656.032a46.91,46.91,0,0,0-7.368-18.375A64.134,64.134,0,0,0,818.071,2656.032Z" transform="translate(-637.227 -2403.73)"/>
    <path id="Tracé_5982" data-name="Tracé 5982" d="M839.445,2602.62c-1.248-4.141-2.985-8.009-6.172-11.07C834.437,2595.737,836.2,2599.589,839.445,2602.62Z" transform="translate(-715.729 -2474.333)"/>
    <path id="Tracé_5983" data-name="Tracé 5983" d="M835.6,2609.824c-1.261-4.134-2.924-8.044-6.174-11.069C830.655,2602.908,832.372,2606.79,835.6,2609.824Z" transform="translate(-702.162 -2463.3)"/>
    <path id="Tracé_5984" data-name="Tracé 5984" d="M841.109,2595.864c-.739-3.4-2.068-6.464-4.954-8.636A15.53,15.53,0,0,0,841.109,2595.864Z" transform="translate(-724.692 -2480.951)"/>
    <path id="Tracé_5985" data-name="Tracé 5985" d="M824.99,2625.173a14.9,14.9,0,0,0-3.721-8.649A15.129,15.129,0,0,0,824.99,2625.173Z" transform="translate(-670.89 -2436.092)"/>
    <path id="Tracé_5986" data-name="Tracé 5986" d="M817.3,2642.945a13.9,13.9,0,0,0-3.721-8.649A14.375,14.375,0,0,0,817.3,2642.945Z" transform="translate(-643.752 -2408.879)"/>
    <path id="Tracé_5987" data-name="Tracé 5987" d="M842.295,2590.072a8.747,8.747,0,0,0-3.739-6.206A8.029,8.029,0,0,0,842.295,2590.072Z" transform="translate(-731.953 -2486.101)"/>
    <path id="Tracé_5988" data-name="Tracé 5988" d="M843.737,2587.67a8.206,8.206,0,0,0-3.739-6.207A8.494,8.494,0,0,0,843.737,2587.67Z" transform="translate(-737.044 -2489.777)"/>
    <path id="Tracé_5989" data-name="Tracé 5989" d="M845.175,2585.268a8.32,8.32,0,0,0-3.736-6.206A8.358,8.358,0,0,0,845.175,2585.268Z" transform="translate(-742.131 -2493.455)"/>
    <path id="Tracé_5990" data-name="Tracé 5990" d="M849.5,2578.067a8.719,8.719,0,0,0-3.736-6.21A8.522,8.522,0,0,0,849.5,2578.067Z" transform="translate(-757.396 -2504.488)"/>
    <path id="Tracé_5991" data-name="Tracé 5991" d="M849.123,2571.859c.648,2.428,1.509,4.729,3.741,6.2C852.33,2575.562,851.416,2573.3,849.123,2571.859Z" transform="translate(-769.27 -2504.485)"/>
    <path id="Tracé_5992" data-name="Tracé 5992" d="M851.525,2567.536a10.365,10.365,0,0,0,3.739,6.2A9.6,9.6,0,0,0,851.525,2567.536Z" transform="translate(-777.749 -2511.104)"/>
    <path id="Tracé_5993" data-name="Tracé 5993" d="M846.616,2582.867a8.458,8.458,0,0,0-3.736-6.208A8.432,8.432,0,0,0,846.616,2582.867Z" transform="translate(-747.219 -2497.133)"/>
    <path id="Tracé_5994" data-name="Tracé 5994" d="M848.057,2580.465a8.369,8.369,0,0,0-3.736-6.206A8.618,8.618,0,0,0,848.057,2580.465Z" transform="translate(-752.308 -2500.81)"/>
    <path id="Tracé_5995" data-name="Tracé 5995" d="M855.272,2568.2c-.554-2.184-1.569-4.022-3.749-4.984A6.719,6.719,0,0,0,855.272,2568.2Z" transform="translate(-777.753 -2517.724)"/>
    <path id="Tracé_5996" data-name="Tracé 5996" d="M818,2637.156a8.314,8.314,0,0,0-2.5-6.222A8.9,8.9,0,0,0,818,2637.156Z" transform="translate(-649.319 -2414.028)"/>
    <path id="Tracé_5997" data-name="Tracé 5997" d="M857.671,2564.833a7.015,7.015,0,0,0-3.746-4.982A6.386,6.386,0,0,0,857.671,2564.833Z" transform="translate(-786.232 -2522.872)"/>
    <path id="Tracé_5998" data-name="Tracé 5998" d="M820.886,2630.426q-1.249-3.107-2.5-6.217A8.661,8.661,0,0,0,820.886,2630.426Z" transform="translate(-659.494 -2424.324)"/>
    <path id="Tracé_5999" data-name="Tracé 5999" d="M860.075,2561.471c-.583-2.162-1.532-4.051-3.749-4.982C856.878,2558.674,857.84,2560.552,860.075,2561.471Z" transform="translate(-794.713 -2528.02)"/>
    <path id="Tracé_6000" data-name="Tracé 6000" d="M819.448,2633.791a9.02,9.02,0,0,0-2.5-6.219A8.536,8.536,0,0,0,819.448,2633.791Z" transform="translate(-654.408 -2419.176)"/>
    <path id="Tracé_6001" data-name="Tracé 6001" d="M822.328,2627.067l-2.5-6.22A9.013,9.013,0,0,0,822.328,2627.067Z" transform="translate(-664.582 -2429.472)"/>
    <path id="Tracé_6002" data-name="Tracé 6002" d="M849.731,2574.189a3.922,3.922,0,0,0-2.529-3.771Q848.466,2572.3,849.731,2574.189Z" transform="translate(-761.274 -2506.691)"/>
    <path id="Tracé_6003" data-name="Tracé 6003" d="M851.168,2571.787l-2.526-3.772C848.8,2569.728,849.427,2571.131,851.168,2571.787Z" transform="translate(-766.356 -2510.371)"/>
    <path id="Tracé_6004" data-name="Tracé 6004" d="M852.128,2570.348a4.142,4.142,0,0,0-2.524-3.773A4.314,4.314,0,0,0,852.128,2570.348Z" transform="translate(-769.751 -2512.579)"/>
    <path id="Tracé_6005" data-name="Tracé 6005" d="M853.447,2565.136q1.26,1.883,2.521,3.764Q854.708,2567.016,853.447,2565.136Z" transform="translate(-783.319 -2514.779)"/>
    <path id="Tracé_6006" data-name="Tracé 6006" d="M853.088,2568.907a4.293,4.293,0,0,0-2.524-3.774A4.122,4.122,0,0,0,853.088,2568.907Z" transform="translate(-773.141 -2514.783)"/>
    <path id="Tracé_6007" data-name="Tracé 6007" d="M855.487,2565.545a4.2,4.2,0,0,0-2.521-3.774A4.128,4.128,0,0,0,855.487,2565.545Z" transform="translate(-781.62 -2519.932)"/>
    <path id="Tracé_6008" data-name="Tracé 6008" d="M857.891,2562.182q-1.264-1.887-2.524-3.774A3.946,3.946,0,0,0,857.891,2562.182Z" transform="translate(-790.101 -2525.081)"/>
    <path id="Tracé_6009" data-name="Tracé 6009" d="M861.254,2557.381a3.575,3.575,0,0,0-2.523-3.774Q859.991,2555.494,861.254,2557.381Z" transform="translate(-801.981 -2532.433)"/>
    <path id="Tracé_6010" data-name="Tracé 6010" d="M858.249,2556.97q1.264,1.883,2.524,3.764Q859.512,2558.85,858.249,2556.97Z" transform="translate(-800.278 -2527.283)"/>
    <path id="Tracé_6011" data-name="Tracé 6011" d="M860.292,2558.822a3.668,3.668,0,0,0-2.521-3.773Z" transform="translate(-798.588 -2530.227)"/>
    <path id="Tracé_6012" data-name="Tracé 6012" d="M816.322,2635.9c-.433-.856-.866-1.708-1.3-2.565C815.457,2634.193,815.89,2635.045,816.322,2635.9Z" transform="translate(-646.415 -2410.347)"/>
    <path id="Tracé_6013" data-name="Tracé 6013" d="M817.762,2632.538q-.649-1.284-1.3-2.564Q817.113,2631.257,817.762,2632.538Z" transform="translate(-651.5 -2415.496)"/>
    <path id="Tracé_6014" data-name="Tracé 6014" d="M819.2,2629.173q-.649-1.279-1.3-2.562C818.335,2627.464,818.768,2628.321,819.2,2629.173Z" transform="translate(-656.586 -2420.644)"/>
    <path id="Tracé_6015" data-name="Tracé 6015" d="M820.645,2625.812c-.433-.852-.866-1.709-1.3-2.562C819.779,2624.1,820.212,2624.96,820.645,2625.812Z" transform="translate(-661.677 -2425.792)"/>
    <path id="Tracé_6016" data-name="Tracé 6016" d="M822.083,2622.451q-.649-1.282-1.3-2.564Q821.432,2621.171,822.083,2622.451Z" transform="translate(-666.763 -2430.942)"/>
    <path id="Tracé_6017" data-name="Tracé 6017" d="M824.006,2618.13l-1.3-2.566Z" transform="translate(-673.549 -2437.562)"/>
    <path id="Tracé_6018" data-name="Tracé 6018" d="M824.488,2617.17q-.649-1.283-1.3-2.565Q823.839,2615.885,824.488,2617.17Z" transform="translate(-675.248 -2439.03)"/>
    <path id="Tracé_6019" data-name="Tracé 6019" d="M828.809,2608.525q-.646-1.282-1.3-2.566Q828.162,2607.242,828.809,2608.525Z" transform="translate(-690.514 -2452.269)"/>
    <path id="Tracé_6020" data-name="Tracé 6020" d="M829.291,2607.564l-1.3-2.566Z" transform="translate(-692.208 -2453.741)"/>
    <path id="Tracé_6021" data-name="Tracé 6021" d="M829.768,2606.606q-.649-1.285-1.3-2.57Q829.122,2605.323,829.768,2606.606Z" transform="translate(-693.901 -2455.214)"/>
    <path id="Tracé_6022" data-name="Tracé 6022" d="M830.248,2605.645q-.645-1.283-1.3-2.57Q829.6,2604.359,830.248,2605.645Z" transform="translate(-695.596 -2456.685)"/>
    <path id="Tracé_6023" data-name="Tracé 6023" d="M833.132,2600.363q-.645-1.288-1.3-2.569Q832.486,2599.077,833.132,2600.363Z" transform="translate(-705.78 -2464.774)"/>
    <path id="Tracé_6024" data-name="Tracé 6024" d="M833.611,2599.4l-1.3-2.566Z" transform="translate(-707.472 -2466.245)"/>
    <path id="Tracé_6025" data-name="Tracé 6025" d="M834.089,2598.438l-1.294-2.566Z" transform="translate(-709.164 -2467.717)"/>
    <path id="Tracé_6026" data-name="Tracé 6026" d="M801.329,2682.806c0,.859-.005,1.713-.008,2.572C802.48,2684.522,802.045,2683.665,801.329,2682.806Z" transform="translate(-597.444 -2334.597)"/>
    <path id="Tracé_6027" data-name="Tracé 6027" d="M836.973,2593.156q-.65-1.285-1.3-2.567Q836.322,2591.871,836.973,2593.156Z" transform="translate(-719.343 -2475.807)"/>
    <path id="Tracé_6028" data-name="Tracé 6028" d="M839.372,2588.834q-.646-1.287-1.293-2.57Q838.724,2587.549,839.372,2588.834Z" transform="translate(-727.823 -2482.425)"/>
    <path id="Tracé_6029" data-name="Tracé 6029" d="M847.206,2577.14q.649,1.284,1.3,2.568Q847.857,2578.424,847.206,2577.14Z" transform="translate(-760.055 -2496.398)"/>
    <path id="Tracé_6030" data-name="Tracé 6030" d="M847.685,2576.179l1.3,2.567Z" transform="translate(-761.749 -2497.869)"/>
    <path id="Tracé_6031" data-name="Tracé 6031" d="M848.165,2575.218q.649,1.282,1.3,2.566Q848.812,2576.5,848.165,2575.218Z" transform="translate(-763.442 -2499.341)"/>
    <path id="Tracé_6032" data-name="Tracé 6032" d="M848.645,2574.257q.65,1.283,1.3,2.566Q849.3,2575.541,848.645,2574.257Z" transform="translate(-765.137 -2500.813)"/>
    <path id="Tracé_6033" data-name="Tracé 6033" d="M861.135,2552.645l1.291,2.566Z" transform="translate(-809.237 -2533.906)"/>
    <path id="Tracé_6034" data-name="Tracé 6034" d="M860.656,2553.6q.645,1.285,1.293,2.569Q861.3,2554.891,860.656,2553.6Z" transform="translate(-807.548 -2532.436)"/>
    <path id="Tracé_6035" data-name="Tracé 6035" d="M859.692,2555.044q.649,1.284,1.293,2.567Q860.34,2556.328,859.692,2555.044Z" transform="translate(-804.144 -2530.233)"/>
    <path id="Tracé_6036" data-name="Tracé 6036" d="M859.214,2556.006q.645,1.284,1.291,2.565Q859.86,2557.287,859.214,2556.006Z" transform="translate(-802.453 -2528.759)"/>
    <path id="Tracé_6037" data-name="Tracé 6037" d="M857.772,2558.407q.645,1.28,1.289,2.562Q858.415,2559.689,857.772,2558.407Z" transform="translate(-797.359 -2525.083)"/>
    <path id="Tracé_6038" data-name="Tracé 6038" d="M857.294,2559.37q.645,1.279,1.288,2.559Q857.937,2560.649,857.294,2559.37Z" transform="translate(-795.671 -2523.608)"/>
    <path id="Tracé_6039" data-name="Tracé 6039" d="M856.331,2560.809q.646,1.278,1.288,2.561Q856.974,2562.09,856.331,2560.809Z" transform="translate(-792.27 -2521.405)"/>
    <path id="Tracé_6040" data-name="Tracé 6040" d="M855.853,2561.771q.645,1.283,1.288,2.561Q856.5,2563.054,855.853,2561.771Z" transform="translate(-790.582 -2519.932)"/>
    <path id="Tracé_6041" data-name="Tracé 6041" d="M854.89,2563.21q.645,1.285,1.288,2.564Q855.536,2564.491,854.89,2563.21Z" transform="translate(-787.182 -2517.728)"/>
    <path id="Tracé_6042" data-name="Tracé 6042" d="M854.412,2564.172q.646,1.284,1.288,2.564Q855.059,2565.456,854.412,2564.172Z" transform="translate(-785.494 -2516.255)"/>
    <path id="Tracé_6043" data-name="Tracé 6043" d="M850.569,2570.9l1.294,2.569Z" transform="translate(-771.928 -2505.959)"/>
    <path id="Tracé_6044" data-name="Tracé 6044" d="M852.969,2566.573q.649,1.284,1.294,2.566Q853.617,2567.857,852.969,2566.573Z" transform="translate(-780.403 -2512.579)"/>
    <path id="Tracé_6045" data-name="Tracé 6045" d="M851.047,2569.935q.65,1.283,1.3,2.567Q851.694,2571.218,851.047,2569.935Z" transform="translate(-773.619 -2507.43)"/>
    <path id="Tracé_6046" data-name="Tracé 6046" d="M849.46,2572.023l-1.294-2.568Z" transform="translate(-763.443 -2508.168)"/>
    <path id="Tracé_6047" data-name="Tracé 6047" d="M855.365,2562.738q.661.655,1.321,1.316Q856.026,2563.393,855.365,2562.738Z" transform="translate(-788.892 -2518.453)"/>
    <path id="Tracé_6048" data-name="Tracé 6048" d="M856.805,2560.335l1.326,1.32Z" transform="translate(-793.982 -2522.131)"/>
    <path id="Tracé_6049" data-name="Tracé 6049" d="M860.166,2554.569l1.334,1.329Z" transform="translate(-805.858 -2530.96)"/>
    <path id="Tracé_6050" data-name="Tracé 6050" d="M837.694,2643.1a26.119,26.119,0,0,0-1.311-4.587q-8.186-16.619-16.57-33.141a24.921,24.921,0,0,0-2.868-3.737,27.7,27.7,0,0,0,1.278,3.973q8.315,16.854,16.764,33.642A31.4,31.4,0,0,0,837.694,2643.1Z" transform="translate(-672.652 -2458.887)"/>
    <path id="Tracé_6051" data-name="Tracé 6051" d="M832.46,2602.589a13.331,13.331,0,0,0-4.949-8.636A14.122,14.122,0,0,0,832.46,2602.589Z" transform="translate(-694.16 -2470.655)"/>
    <path id="Tracé_6052" data-name="Tracé 6052" d="M830.54,2605.947c-.714-3.415-2.081-6.455-4.951-8.632C826.31,2600.725,827.652,2603.78,830.54,2605.947Z" transform="translate(-687.375 -2465.505)"/>
    <path id="Tracé_6053" data-name="Tracé 6053" d="M833.4,2590.384q-.615-.612-1.227-1.226l-1.3,0a7.493,7.493,0,0,0,3.739,6.186q0-1.257,0-2.516Q834.007,2591.607,833.4,2590.384Z" transform="translate(-704.826 -2477.999)"/>
    <path id="Tracé_6054" data-name="Tracé 6054" d="M831.953,2592.791l-2.521-1.238a7.547,7.547,0,0,0,3.736,6.2Z" transform="translate(-699.731 -2474.329)"/>
    <path id="Tracé_6055" data-name="Tracé 6055" d="M826.406,2603.239q-.649-1.282-1.3-2.564Q825.759,2601.959,826.406,2603.239Z" transform="translate(-682.029 -2460.36)"/>
    <path id="Tracé_6056" data-name="Tracé 6056" d="M812,2672.888q-.649-1.284-1.3-2.567Q811.351,2671.6,812,2672.888Z" transform="translate(-631.151 -2353.715)"/>
    <path id="Tracé_6057" data-name="Tracé 6057" d="M811.517,2673.847q-.645-1.283-1.3-2.566Q810.87,2672.564,811.517,2673.847Z" transform="translate(-629.452 -2352.246)"/>
    <path id="Tracé_6058" data-name="Tracé 6058" d="M811.036,2674.807q-.649-1.282-1.3-2.566Q810.386,2673.524,811.036,2674.807Z" transform="translate(-627.754 -2350.775)"/>
    <path id="Tracé_6059" data-name="Tracé 6059" d="M810.557,2675.767q-.649-1.284-1.3-2.565Q809.908,2674.482,810.557,2675.767Z" transform="translate(-626.058 -2349.304)"/>
    <path id="Tracé_6060" data-name="Tracé 6060" d="M745.861,2762.187a66.588,66.588,0,0,0,6.146-18.38A40.39,40.39,0,0,0,745.861,2762.187Z" transform="translate(-407.031 -2241.19)"/>
    <path id="Tracé_6061" data-name="Tracé 6061" d="M748.763,2759.157c1.734-1.807,1.268-4.065,1.271-6.227C748.332,2754.747,748.785,2757,748.763,2759.157Z" transform="translate(-412.36 -2227.221)"/>
    <path id="Tracé_6062" data-name="Tracé 6062" d="M748.286,2756.02c1.673-1.352,1.288-3.228,1.278-5.009C747.922,2752.37,748.274,2754.236,748.286,2756.02Z" transform="translate(-410.671 -2230.16)"/>
    <path id="Tracé_6063" data-name="Tracé 6063" d="M861.015,2817.5c-3.088-3.709-7.781-4.749-11.77-6.931-2.407-1.316-5.195-1.938-7.812-2.873A76.949,76.949,0,0,0,861.015,2817.5Z" transform="translate(-757.955 -2143.353)"/>
    <path id="Tracé_6064" data-name="Tracé 6064" d="M851.849,2821.349c-3.728-4.3-9.125-6.011-13.8-8.834a13.505,13.505,0,0,0-3.336-.972c3.182,3.684,7.905,4.987,11.793,7.584C848.078,2820.177,850.054,2820.627,851.849,2821.349Z" transform="translate(-731.772 -2137.471)"/>
    <path id="Tracé_6065" data-name="Tracé 6065" d="M852,2804.336c0,.436,0,.873,0,1.311,1.837.623,3.673,1.258,5.518,1.863s3.7,1.179,5.548,1.769l-7.34-4.943Z" transform="translate(-786.74 -2148.506)"/>
    <path id="Tracé_6066" data-name="Tracé 6066" d="M851.68,2808.517l-2.564-1.3Z" transform="translate(-768.068 -2144.091)"/>
    <path id="Tracé_6067" data-name="Tracé 6067" d="M852.64,2808.038l-2.564-1.3Z" transform="translate(-771.458 -2144.826)"/>
    <path id="Tracé_6068" data-name="Tracé 6068" d="M853.6,2807.557l-2.564-1.3Z" transform="translate(-774.848 -2145.562)"/>
    <path id="Tracé_6069" data-name="Tracé 6069" d="M772.677,2850.089l-3.771-2.526Z" transform="translate(-486.031 -2082.314)"/>
    <path id="Tracé_6070" data-name="Tracé 6070" d="M771.236,2851.048q-1.887-1.26-3.772-2.524Q769.351,2849.785,771.236,2851.048Z" transform="translate(-480.942 -2080.843)"/>
    <path id="Tracé_6071" data-name="Tracé 6071" d="M769.8,2852.01q-1.887-1.261-3.774-2.526Q767.91,2850.748,769.8,2852.01Z" transform="translate(-475.856 -2079.373)"/>
    <path id="Tracé_6072" data-name="Tracé 6072" d="M774.12,2849.127l-3.774-2.524Z" transform="translate(-491.122 -2083.784)"/>
    <path id="Tracé_6073" data-name="Tracé 6073" d="M775.561,2848.168l-3.774-2.526Z" transform="translate(-496.21 -2085.255)"/>
    <path id="Tracé_6074" data-name="Tracé 6074" d="M777,2847.207l-3.771-2.525Z" transform="translate(-501.296 -2086.725)"/>
    <path id="Tracé_6075" data-name="Tracé 6075" d="M778.438,2846.246l-3.769-2.526Z" transform="translate(-506.382 -2088.198)"/>
    <path id="Tracé_6076" data-name="Tracé 6076" d="M782.281,2843.846l-3.769-2.528Z" transform="translate(-519.953 -2091.876)"/>
    <path id="Tracé_6077" data-name="Tracé 6077" d="M763.306,2854.624l-2.569-1.294Z" transform="translate(-455.985 -2073.483)"/>
    <path id="Tracé_6078" data-name="Tracé 6078" d="M778.677,2844.539l-2.569-1.294Z" transform="translate(-510.264 -2088.926)"/>
    <path id="Tracé_6079" data-name="Tracé 6079" d="M780.117,2843.575q-1.284-.645-2.569-1.293Q778.835,2842.927,780.117,2843.575Z" transform="translate(-515.349 -2090.401)"/>
    <path id="Tracé_6080" data-name="Tracé 6080" d="M782.519,2842.135q-1.284-.645-2.569-1.293Q781.238,2841.488,782.519,2842.135Z" transform="translate(-523.831 -2092.605)"/>
    <path id="Tracé_6081" data-name="Tracé 6081" d="M784.918,2840.694q-1.284-.645-2.567-1.294Q783.635,2840.046,784.918,2840.694Z" transform="translate(-532.307 -2094.814)"/>
    <path id="Tracé_6082" data-name="Tracé 6082" d="M785.88,2840.218l-2.567-1.3Z" transform="translate(-535.704 -2095.547)"/>
    <path id="Tracé_6083" data-name="Tracé 6083" d="M791.16,2837.335q-1.283-.651-2.564-1.3Q789.88,2836.686,791.16,2837.335Z" transform="translate(-554.357 -2099.963)"/>
    <path id="Tracé_6084" data-name="Tracé 6084" d="M792.121,2836.854q-1.283-.645-2.564-1.3Q790.84,2836.206,792.121,2836.854Z" transform="translate(-557.75 -2100.697)"/>
    <path id="Tracé_6085" data-name="Tracé 6085" d="M778.394,2844.085q-.657-.665-1.319-1.329Q777.736,2843.419,778.394,2844.085Z" transform="translate(-512.428 -2089.675)"/>
    <path id="Tracé_6086" data-name="Tracé 6086" d="M800.21,2723.3a1057.542,1057.542,0,0,0,73.274,96.45c1.661,1.937,3.349,3.85,5.022,5.777.207.222.4.456.6.688q3.964,4.561,7.958,9.09c.157.17.311.341.461.519q4.374,4.936,8.776,9.843c.911,1.013-.706,2.282-1.63,1.32a782.855,782.855,0,0,1-77.084-93.446q-9.917-14.166-19.255-28.725C797.5,2723.532,799.334,2722,800.21,2723.3Z" transform="translate(-683.879 -2273.344)"/>
    <path id="Tracé_6087" data-name="Tracé 6087" d="M803.492,2765.428q.661.66,1.319,1.318Q804.154,2766.086,803.492,2765.428Z" transform="translate(-605.713 -2208.083)"/>
    <path id="Tracé_6088" data-name="Tracé 6088" d="M800.129,2769.271l1.321,1.32Z" transform="translate(-593.84 -2202.2)"/>
    <path id="Tracé_6089" data-name="Tracé 6089" d="M975.3,3341.265c-6.3-9.19-12.431-18.485-19.647-27.018a106,106,0,0,1-7.472-10.338,725.421,725.421,0,0,1-52.192-93.929c-4.422-9.558-8.852-19.114-13.41-28.608a26.116,26.116,0,0,0-4.247-6.584c-8.054-8.565-16.354-16.878-26.247-23.412-5.916-3.907-11.755-7.929-17.6-11.945-9.517-6.532-19.212-12.833-28.476-19.709-24.13-17.92-43.687-40.364-62.089-63.872a188.959,188.959,0,0,1-19.422-29.367c-18.536-35.792-37.361-71.441-55.341-107.51-16.2-32.517-33.339-64.388-55.505-93.323-.641-.833-.711-2.1-1.025-3.092,2.088-1.765,3.7-.9,5.3.047,5.235,3.083,10.639,5.913,15.666,9.3,33,22.255,64.273,46.617,91.938,75.4,24.065,25.04,46.327,51.528,65.2,80.731,20.622,31.9,37.563,65.74,52.662,100.545,7.576,17.464,15.425,34.808,23.229,52.17a42.9,42.9,0,0,0,3.3,5.34,42.331,42.331,0,0,0-1.02-4.369c-5.576-16.923-11.3-33.8-16.78-50.754a592.267,592.267,0,0,1-26.955-137.388,104.374,104.374,0,0,0-11.4-39.971,423.192,423.192,0,0,0-35.848-57.758c-19.724-26.988-39.123-54.2-57.123-82.4a476.066,476.066,0,0,1-30.031-55.538,410.913,410.913,0,0,1-16.39-40.527,223.764,223.764,0,0,1-9.581-39.5c-1.007-6.8-1.362-13.694-1.855-20.556-.767-10.7-1.235-21.433-2.141-32.124-1.023-12.1-1.992-24.217-4.817-36.085-.253-1.063.109-2.274.215-3.885,1.536.3,2.794.24,3.67.787a16.251,16.251,0,0,1,3.035,2.947c30.757,33.49,58.986,68.93,83.754,107.127,17.22,26.555,33.278,53.725,46.593,82.464a271.365,271.365,0,0,1,17.82,51.572c5.627,23.685,7.629,47.937,12.077,70.488,0-4.115.1-9.512-.02-14.906-.337-15.4-.233-30.793,1.584-46.11,1.195-10.051,2.542-20.1,4.222-30.075,1.174-6.969,2.359-14.06,4.7-20.687,7.579-21.464,17.207-41.99,30.638-60.506,9.765-13.465,18.9-27.3,26.335-42.211.243-.489.891-.776,1.617-1.383.952.3,2.025.637,3.407,1.068.281,2.31.714,4.49.782,6.678.192,6.073.42,12.156.3,18.228-.382,18.632-.79,37.268-1.443,55.892-.453,12.953-1.015,25.917-3.815,38.651a336.934,336.934,0,0,1-27.937,78.812c-5.43,10.848-10.221,22.044-14.77,33.3-3.64,9-6.642,18.273-9.606,27.528A131.536,131.536,0,0,0,834,2924.25c-2.068,13.034-2.719,26.156.43,39.2.8,3.341,1.248,6.768,1.876,10.152,4.1,22.1,8.308,44.171,14.714,65.767,2.934,9.893,5.847,19.862,7.695,29.99a352.273,352.273,0,0,0,18.468,64.1c6.068,15.673,11.758,31.491,17.432,47.309,1.866,5.2,4.047,10.059,7.764,14.277a28.4,28.4,0,0,1,7.088,13.9c.372,2.083,1.832,4.021,3,5.9,3.316,5.334,6.726,10.606,10.125,15.887.651,1.012,1.415,1.956,2.845,3.918-.567-2.514-.782-3.7-1.1-4.857-5.741-20.764-8.862-41.985-10.963-63.369-.772-7.857-1.053-15.76-1.552-23.645a306.184,306.184,0,0,1,2.4-63.035c2.369-16.481,6.275-32.6,10.4-48.687,6.136-23.951,12.8-47.736,23.158-70.3q17.488-38.094,34.979-76.191c.762-1.658,1.483-3.386,3.847-3.8,3.293.509,3.485,3.4,3.731,5.936.959,9.874,1.984,19.756,2.549,29.659,1.916,33.663-2.62,66.713-10.211,99.394-7.841,33.749-17.8,66.924-27.892,100.055-6.865,22.541-11.9,45.4-13.352,69.021-1.083,17.659-1.2,35.25,1.795,52.715,4.159,24.271,10.92,47.731,22.371,69.7a324.5,324.5,0,0,0,22.915,37.227c17.42,24.67,35.326,48.969,55.384,71.578,8.74,9.849,17.706,19.477,25.831,29.865,4.45,5.691,9.424,10.977,14.165,16.439-.58-2.292-1.04-4.619-1.782-6.854-2.235-6.726-4.63-13.4-6.88-20.119-7.1-21.178-10.938-43.167-15.952-64.86a229.329,229.329,0,0,1-5.678-43.934c-.764-22.675-.962-45.37-1.344-68.057-.38-22.6,2.392-44.842,7.252-66.9,4.68-21.237,10.629-42.059,20.268-61.6,9.046-18.342,18.686-36.392,28.071-54.566a8.85,8.85,0,0,1,1.233-2.083c.932-.98,2.02-1.813,2.762-2.462,3.015.057,4.118,1.714,4.668,3.768a34.274,34.274,0,0,1,.7,4.8c1.7,14.48,3.07,29.01,5.146,43.439,4.134,28.724,6.685,57.539,6.3,86.579-.175,12.965-.258,25.937-.724,38.892-.3,8.291-.952,16.587-1.916,24.829q-3.075,26.248-6.675,52.436c-2.334,16.848-4.462,33.754-7.672,50.444a358.929,358.929,0,0,0-6.758,77.324,224.727,224.727,0,0,0,3.6,33.8,25.145,25.145,0,0,0,7.958,14.633c2.091,1.916,4.1,3.924,6.105,5.928,6.014,6.02,12.059,12.005,18,18.1,6.928,7.106,13.558,14.517,20.668,21.435,22.68,22.064,44.01,45.365,64.374,69.564,20.609,24.489,40.918,49.241,63.668,71.831a12.778,12.778,0,0,1,4.141,9.158,39.6,39.6,0,0,0,.906,5.326,38.011,38.011,0,0,1,.516,4.751c.013.44-.671.9-1.2,1.567-1.622-.835-3.189-1.645-4.635-2.389-3.372.979-3.372.979-7.108.46-.823-1.69-1.858-3.626-2.729-5.631a135.621,135.621,0,0,0-22.525-35.87c-10.431-11.859-21.429-23.225-32.359-34.635-21.587-22.533-43.1-45.135-65.008-67.354-19.787-20.067-38.8-40.841-57.464-61.927-26.73-30.2-52.141-61.514-76.915-93.337a58.752,58.752,0,0,0-13.641-12.864c-3.027-2.03-6.047-4.085-9.163-5.97-17.746-10.739-36.982-18.459-56.039-26.288-18.319-7.525-37.478-13-56.252-19.419-11.687-4-23.4-7.925-35-12.166a224.633,224.633,0,0,1-36.69-17.518,687.917,687.917,0,0,1-81.749-55.827c-18.182-14.557-35.822-29.8-53.488-44.985-7.981-6.86-15.443-14.322-23.126-21.528-1.144-1.073-2.638-2.085-1.5-4.1,1.924-1.322,3.86-.4,5.789.061,24.829,5.855,49.635,11.812,74.492,17.551,52.627,12.146,100.526,34.664,144.623,65.59,25.128,17.623,47.98,37.928,69.981,59.24q22.227,21.531,44.454,43.068c-1.109-1.88-2.108-3.84-3.359-5.623C987.955,3359.116,981.49,3350.287,975.3,3341.265Zm-171-457.67a18.707,18.707,0,0,0-.883-3.863c-3.25-7.405-6.419-14.851-9.989-22.1-3.926-7.984-8.221-15.788-12.436-23.627a57.288,57.288,0,0,0-3.334-4.939c-1.332-2.915-2.445-5.956-4.03-8.724-12.748-22.278-25.73-44.421-38.351-66.769q-8.623-15.267-16.519-30.912a1.045,1.045,0,0,1-1.567-.413q-28.382-61.186-50.83-124.625c2.5,17.728,5.546,35.3,12.907,51.907,4.986,11.252,9.161,22.86,13.909,34.221a464.133,464.133,0,0,0,24.51,50.427.972.972,0,0,1,.24.25q19.087,30.018,38.05,60.112c6.13,9.708,12.109,19.455,17.812,29.358a7.142,7.142,0,0,1,.668,1.174c.648,1.132,1.288,2.267,1.931,3.4l1.2.641c.643,1.668,1.172,3.392,1.949,5,.071.145.144.29.215.436,3.346,6.118,6.586,12.3,9.664,18.6q6.284,12.87,11.948,25.989C802.331,2880.634,803.328,2882.108,804.308,2883.595ZM672.366,2654.971a438.519,438.519,0,0,0,31.415,81.463c5.614,11.185,12.527,21.75,19.316,32.3,20.5,31.859,42.274,62.844,64.97,93.181q3.857,5.152,7.708,10.312c-6.968-14.451-13.881-28.929-21.746-42.924-11.454-20.38-24.467-39.946-36.85-59.771q-7.833-12.542-15.618-25.11c-.233-.379-.471-.754-.7-1.134q-2.32-3.735-4.645-7.467a1.144,1.144,0,0,1-.152-.853c-10.224-18.248-19.739-36.845-27.32-56.4-3.658-9.437-7.548-18.791-11.571-28.078a152.377,152.377,0,0,1-10.1-33.656c-.554-3.071-1.18-6.13-1.942-9.163C666.248,2623.637,668.144,2639.49,672.366,2654.971ZM664.3,2568.6c2.2,10.966,6.184,21.325,10.626,31.54,4.913,11.306,9.735,22.657,14.628,33.972,1.764,4.082,3.46,8.2,5.46,12.169q18.157,36.014,36.46,71.946c1.407,2.765,2.883,5.5,4.364,8.224a.847.847,0,0,1,.744.463c16.549,31.454,33.19,62.916,48.615,94.949,1.078,1.861,2.144,3.729,3.222,5.589-.567-2.179-1.023-4.4-1.787-6.508-7.908-21.857-17.531-43.005-26.672-64.359-6.6-15.407-12.418-31.161-19.417-46.379-.85-1.851-1.739-3.682-2.6-5.526a.958.958,0,0,1-.405-.41c-10.044-19.678-20.131-39.338-30.106-59.053-9.816-19.4-19.478-38.9-30.2-57.811-4.28-7.552-8.735-15-13.223-22.431C663.555,2566.138,664.054,2567.364,664.3,2568.6Zm.337-6.852-.008.641c9.913,15.677,19.642,31.463,28.049,48.017q5.183,10.206,10.307,20.44a8.1,8.1,0,0,1,.865,1.322c10.738,21.517,21.668,42.947,32.139,64.592q1.682,3.359,3.362,6.723a.894.894,0,0,1,.1.464c.792,1.66,1.607,3.309,2.392,4.972,7.771,16.461,13.874,33.7,21.333,50.313,17.261,38.451,31.911,77.926,46.765,117.325,2.141,5.678,4.425,11.3,6.642,16.95a1.507,1.507,0,0,0,.01,2.468q.588,1.778,1.182,3.551c.2-.326.413-.663.678-1.093q-.524-5.817-.6-11.674c-4.217-16.854-8.353-33.728-12.892-50.5-1.916-7.08-4.174-14.066-6.442-21.053-11.484-29.884-24.211-59.312-37.908-88.223a1129.742,1129.742,0,0,0-60.072-110.771q-16.22-26.214-33.314-51.9Q665.936,2563.027,664.638,2561.743Zm8.945,6.74c-.936-1.08-1.926-2.11-2.918-3.141a1076.952,1076.952,0,0,1,59.634,96.366,1149.481,1149.481,0,0,1,54.741,113.3c3.792,9.113,7.4,18.3,10.927,27.515a24.507,24.507,0,0,1,1,2.4c.154.441.288.892.44,1.338q6.607,17.476,12.715,35.136a.892.892,0,0,1-.4,1.078c3.078,9.631,5.969,19.333,8.538,29.117-.294-2.794-.61-5.587-1.023-8.363-5-33.529-13.2-66.233-25.583-97.828-4.131-10.541-8.558-20.965-12.8-31.467-.043-.11-.063-.229-.1-.341-2.359-4.691-4.764-9.355-7.12-14.021q-7.89-15.619-16.347-30.952c-9.576-17.364-19.653-34.44-29.9-51.417C709.1,2613.556,692.394,2590.23,673.584,2568.484Zm139.783,251.792c-1.461-8.779-3.622-17.438-5.387-26.168a210.548,210.548,0,0,0-15.2-45.412,606.9,606.9,0,0,0-44.9-81.3,31.927,31.927,0,0,0-2.982-3.479c4.283,7.432,8.48,14.915,12.517,22.481q8.368,15.689,16.154,31.678c5.28,10.848,9.885,21.99,15.094,32.859a.691.691,0,0,1-.185.866c2.964,7.644,5.655,15.395,8.523,23.075a412.24,412.24,0,0,1,19.756,74.428,11.04,11.04,0,0,0,.974,2.491C816.308,2841.286,815.109,2830.736,813.367,2820.275Zm4.485,32.205v4.824c.344-.041.691-.081,1.035-.12Q818.371,2854.832,817.852,2852.48Zm.714,47.171-.754.006c.491,2.056.989,4.15,1.567,6.575C819.063,2904.046,818.784,2901.854,818.566,2899.652Zm1.491,14.772c-2.62-8.049-5.529-16.007-7.991-24.1a349.125,349.125,0,0,0-16.557-42.913,1.089,1.089,0,0,1-1.094-.635c-10.71-21.79-21.245-43.669-32-65.436q-9.151-17.992-18.248-36.016c-.134-.267-.218-.56-.334-.836-1.152-2.23-2.319-4.454-3.483-6.679a11.232,11.232,0,0,1-1.1-1.658q-23.047-44.36-45.977-88.773c-.926-1.795-1.78-3.63-2.577-5.485-7.032-16.322-14.1-32.629-21.022-49-2.078-4.911-3.736-10-6.073-14.871q.645,4.4,1.293,8.8,19.694,55.71,43.378,110.054c12.021,24.74,24.7,49.122,38.45,72.981,14.658,25.437,29.3,50.891,43.107,76.826,10.814,20.308,19.359,41.413,26.879,63.048a110.223,110.223,0,0,0,4.564,10.09A50.739,50.739,0,0,0,820.057,2914.424Zm45.337-223.286a128.418,128.418,0,0,0-9.216,13.932c-7.189,13.157-13.8,26.593-18.68,40.816a108.219,108.219,0,0,0-5.073,24.305c-1.185,11.679-3.05,23.3-3.994,34.989-.774,9.571-.623,19.214-.881,28.825l.709.021q1.265-15.1,2.529-30.211a192.428,192.428,0,0,1,6.779-36.333c6.728-23.818,14.871-47.081,25.7-69.368.795-1.636,1.445-3.344,2.113-5.038A8.334,8.334,0,0,0,865.394,2691.138Zm14.334-20.5c-3.167,4.931-6.857,9.221-9.072,14.448-6.553,15.456-13.633,30.727-19.341,46.489-7.158,19.756-13.757,39.786-16.876,60.687-1.37,9.188-2.045,18.486-2.853,27.75-.894,10.265-1.779,20.537-2.281,30.826a177.421,177.421,0,0,0,.474,21.865c0-2.177-.081-4.357.015-6.529.349-8.08.547-16.175,1.223-24.227a123.64,123.64,0,0,1,2.427-13.709c1.85-9.317,3.658-18.645,5.7-27.922,1.691-7.69,3.485-15.37,5.614-22.945,2.351-8.369,4.9-16.7,7.788-24.893,3.625-10.292,7.358-20.572,11.626-30.606,6.913-16.264,11.591-33.2,16.19-50.187C880.4,2671.552,880.167,2671.344,879.729,2670.635Zm5.321-6.43c-1.734,5.39-3.412,10.81-4.774,16.3a332,332,0,0,1-16.372,48.213c-3.977,9.5-7.153,19.332-10.527,29.072-2.119,6.114-3.9,12.34-5.9,18.5a176.407,176.407,0,0,0-6.738,27.67,211.927,211.927,0,0,1-4.774,22.539c-3.349,12.477-3.941,25.116-2.858,38.018.608-2.6,1.185-5.206,1.833-7.8,8.242-32.96,16.129-66,27.57-98.089,4.2-11.775,6.817-24.113,10.13-36.2q8.023-29.254,16-58.518c.63-2.309,1.152-4.647,1.721-6.97C886.986,2658.492,885.961,2661.378,885.049,2664.2Zm-3.746,64.9a222.7,222.7,0,0,1-7.077,31.329c-2.663,8.905-4.85,17.955-7.424,26.886-2.627,9.126-5.105,18.319-8.3,27.247-6.078,16.967-10.945,34.277-15.506,51.683a46.057,46.057,0,0,0-.861,6.2c1.131-2.883,2.463-5.71,3.3-8.677a328.924,328.924,0,0,1,15.947-44.5,97.651,97.651,0,0,0,3.706-9.618c4.67-14.428,9.543-28.8,13.73-43.365,2.111-7.342,3.136-15.023,4.26-22.609,1.746-11.791,3.235-23.62,4.683-35.45.78-6.383,1.248-12.8,1.468-19.256C885.9,2702.237,883.3,2715.613,881.3,2729.109Zm-39.837,156.025c6.429-19.915,16.261-38.338,24.925-57.286,11.861-25.948,19.787-53.1,22.442-81.565a343.9,343.9,0,0,0,1.367-46.322c-2.278,18.858-4.194,36.3-6.581,53.668a129.236,129.236,0,0,1-4.409,18.864q-4.9,16.589-10.462,32.973c-2.541,7.459-5.445,14.814-8.541,22.065a276.557,276.557,0,0,0-11.115,30.808c-1.995,6.789-4.376,13.461-6.462,20.224-.741,2.41-1.151,4.924-1.693,7.4A2.955,2.955,0,0,0,841.466,2885.135Zm14.086-69.48c3.07-9.631,5.817-19.368,8.609-29.088,2.511-8.752,4.68-17.605,7.368-26.3,3.959-12.81,6.351-25.914,8.495-39.117,1.716-10.58,4.144-21.044,6.131-31.582a72.62,72.62,0,0,0,1.377-13.954c-.522,1.465-1.152,2.9-1.544,4.4-4.05,15.463-8.214,30.9-12.041,46.419-3.149,12.786-6.45,25.516-10.932,37.9-8.624,23.833-14.828,48.348-20.921,72.915-4.093,16.511-8.179,33-10.148,49.936-.537,4.625-1.266,9.239-1.516,13.879a30.56,30.56,0,0,0,.413,5.7q1.215-4.582,2.453-9.153a1.254,1.254,0,0,1,1.627-.929c1.787-6.619,2.653-13.433,4.032-20.144C843.2,2855.9,849.161,2835.718,855.553,2815.655Zm-22.475,155.3c-.635,2.941-.63,4.648.5,6.15C833.442,2975.458,833.306,2973.761,833.078,2970.958Zm.6,6.566v4.984A4.808,4.808,0,0,0,833.675,2977.523Zm3.131,15.424c-.678,2.488-.544,3.811.3,5.019C837.027,2996.679,836.948,2995.338,836.806,2992.947Zm16.815,68.567c-5.366-20.538-11.748-40.814-15.673-61.716a5.017,5.017,0,0,0-.744-1.458,111.664,111.664,0,0,0,4.85,31.332c3.954,12.689,7.624,25.468,11.482,38.191a28.291,28.291,0,0,0,1.833,4C854.821,3068.408,854.5,3064.886,853.621,3061.514Zm-124.745-38.469a195.261,195.261,0,0,0,19.366,29.315c16.866,21.523,34.643,42.238,56.31,59.163,8.75,6.836,18.038,12.988,27.135,19.374a25.156,25.156,0,0,0,4.2,1.981c-4.959-4.374-9.945-8.718-14.866-13.132-5.564-4.992-11.325-9.8-16.554-15.12-17.984-18.307-36.488-36.145-52.711-56.1-7.394-9.1-14.638-18.316-21.976-27.459-.977-1.217-2.106-2.313-3.169-3.462C727.355,3019.423,727.965,3021.313,728.876,3023.045Zm-93.117-171.631c8.824,14.563,19.906,27.524,29.512,41.541,6.533,9.529,12.98,19.082,18.392,29.3.853,1.61,1.623,3.276,2.594,4.812,17.524,27.709,33.111,56.649,52.655,83.089a56.222,56.222,0,0,1,3.508,6.205,34.29,34.29,0,0,1-3.789-3.669,444.458,444.458,0,0,1-27.793-41.228c-4.473-7.456-9.208-14.751-13.691-22.2-5.731-9.527-11.178-19.225-17.015-28.684-5.941-9.628-12.191-19.068-18.354-28.56a11.188,11.188,0,0,0-1.957-1.936,31.339,31.339,0,0,0,1.547,4.288q22.147,42.934,44.4,85.812c2.238,4.3,4.85,8.421,7.485,12.5a578.669,578.669,0,0,0,58.5,75.244c1.5,1.648,2.987,3.31,4.554,4.9q16.235,16.425,32.524,32.8c3.139,3.141,6.5,6.058,9.867,9.181.653-.562,1.066-.916,1.476-1.271,1.471,1.3,3.012,2.537,4.4,3.924,7.057,7.078,14.059,14.207,21.123,21.275a10.572,10.572,0,0,0,2.291,1.437,40.335,40.335,0,0,0-3.118-4.836c-10.831-12.834-21.361-25.948-32.711-38.308a487.112,487.112,0,0,1-37.508-46.109q-9.356-13.084-18.868-26.056c-8.986-12.25-16.939-25.156-24.915-38.072-10.416-16.865-21.257-33.471-32.043-50.1-10.348-15.954-20.493-32.058-31.413-47.612-9.057-12.9-19.065-25.148-28.773-37.589-1.529-1.962-3.64-3.468-5.51-5.164C633.993,2848.028,634.772,2849.783,635.759,2851.414Zm84.544,78.74c6.1,10.93,12.155,21.885,18.314,32.78,2.886,5.1,6.288,9.93,8.9,15.156,9.156,18.281,19.873,35.663,30.281,53.223a85.051,85.051,0,0,0,5.688,8.589c15.188,19.688,29.573,40.005,46.018,58.7,2.392,2.719,5.009,5.24,7.52,7.853l2.118,2.825q-.866-1.583-1.736-3.167c-.926-1.782-1.742-3.633-2.8-5.333-17.757-28.482-35.238-57.14-53.414-85.354s-37.516-55.667-57.634-82.552a34.031,34.031,0,0,0-2.906-3.038q-1.518-1.836-3.032-3.677Q718.963,2928.159,720.3,2930.153Zm-4.855-1.784c-13.763-17.7-27.684-35.286-43.755-51.015-.625-.612-1.291-1.184-1.944-1.769a36.488,36.488,0,0,0,2.709,4.176c5.928,7.176,11.773,14.434,17.952,21.389a340.351,340.351,0,0,1,38.2,53.159c6.184,10.446,12.568,20.77,18.936,31.106a30.891,30.891,0,0,0,3.182,3.833,40.791,40.791,0,0,0-2.132-5.227c-3.531-6.351-7.173-12.642-10.824-18.926-4.055-6.982-8.1-13.974-12.269-20.89C722.27,2938.849,719.271,2933.282,715.448,2928.369Zm26.651,52.159c-6.1-10.032-12.213-20.059-18.248-30.13a303.469,303.469,0,0,0-32.089-44.158c-9.6-10.966-18.9-22.2-28.446-33.215-3.045-3.511-6.386-6.779-9.738-10a36.578,36.578,0,0,0-4.655-3.368,39.135,39.135,0,0,0,2.959,4.9,591.848,591.848,0,0,1,39.265,56.285c11.272,18.032,22.979,35.792,34.493,53.675,1.1,1.7,2.263,3.367,3.263,5.125,17.87,31.452,39.9,60.044,61.641,88.789,8.887,11.752,19.513,22.192,29.37,33.21a5.009,5.009,0,0,0,1.342.855,39.664,39.664,0,0,0-2.412-4.577Q802.67,3074.4,786.4,3050.94C770.632,3028.1,756.51,3004.223,742.1,2980.528ZM631.672,2835.463a26.126,26.126,0,0,0-8.259-4.185c.706.778,1.4,1.56,2.116,2.332a290.373,290.373,0,0,0,29.35,27.259c1.564,1.283,2.952,2.781,4.394,4.211A142.332,142.332,0,0,0,631.672,2835.463Zm209.372,252.98c-26.15-62.418-61.076-119.237-107.975-168.325-10.626-11.125-21.8-21.723-32.807-32.481a35.186,35.186,0,0,0-5.027-3.578c1.3,1.62,2.529,3.318,3.969,4.807q9.489,9.815,19.1,19.509a343.227,343.227,0,0,1,32.21,37.864c7.078,9.606,14.317,19.1,21.149,28.879s13.405,19.733,19.8,29.8c8.672,13.656,17.43,27.278,25.464,41.309,8.133,14.2,15.418,28.887,23.1,43.348.97,1.822,2.068,3.578,3.121,5.358C842.474,3092.759,841.919,3090.534,841.044,3088.442Zm10.062,30.4c-4.609-10.6-10.558-20.455-16.82-30.156-5.923-9.166-11.608-18.488-17.258-27.823-20.414-33.735-41.044-67.332-64.392-99.147-6.214-8.466-13.129-16.417-19.66-24.654-1.473-1.861-2.688-3.927-4.022-5.9a28.673,28.673,0,0,1,3.678,2.936,286.674,286.674,0,0,1,26.864,33.571c3.483,5.2,7.037,10.369,10.74,15.416,9.219,12.561,16.985,26.048,25.363,39.146,12.416,19.4,23.794,39.424,35.959,58.968a48.1,48.1,0,0,0,4.334,5.305,33.071,33.071,0,0,0-1.42-3.655c-8.272-16.24-16.835-32.317-26.77-47.628-3.855-5.944-7.619-11.96-11.115-18.119-12.932-22.777-28.57-43.7-43.958-64.8a384.648,384.648,0,0,0-42.871-49.552c-11.328-11-22.354-22.316-33.62-33.38a54.063,54.063,0,0,0-6.563-4.844q.569,1.143,1.139,2.289a48.262,48.262,0,0,1-4.789-3.437c-5.209-4.749-10.328-9.6-15.479-14.421a51.722,51.722,0,0,0,4.736,6.153c6.725,6.741,13.7,13.231,20.445,19.954,19.4,19.343,37.559,39.794,53.566,62.039,16.327,22.687,32.316,45.624,48.218,68.614,5.526,7.987,10.312,16.482,15.492,24.708q28.169,44.747,56.4,89.447a43.268,43.268,0,0,0,3.615,4.454A57.244,57.244,0,0,0,851.105,3118.841Zm16.154,35.082c-3.918-6.112-8.123-12.038-12.125-18.1a340.065,340.065,0,0,0-22.948-30.411c-10.082-12.068-19.657-24.558-29.5-36.834-1.268-1.585-2.747-3-4.151-4.475a40.665,40.665,0,0,0,2.366,4.352c8.576,12.463,17.22,24.878,25.793,37.345a34.05,34.05,0,0,1,2.127,4.218l-.038,0a35.331,35.331,0,0,1,4.166,4.05c6.65,8.883,13.294,17.774,19.716,26.819,3.878,5.465,7.893,10.7,13.464,14.584,1.774,1.235,3.331,2.786,4.979,4.2C871.009,3157,868.5,3155.865,867.26,3153.923Zm5.68-21.981q-3.9-11.139-7.92-22.24a11.348,11.348,0,0,0-.99-1.847,79.135,79.135,0,0,0,1.729,7.809c1.562,4.931,3.306,9.809,5.154,14.644a35.2,35.2,0,0,0,2.683,4.855A19.976,19.976,0,0,0,872.94,3131.942Zm2.083,7.5,2.207,5.419A7.861,7.861,0,0,0,875.023,3139.44Zm2.47,6.373c1.213,6.161,3.1,12.049,6.958,17.14Q880.974,3154.383,877.494,3145.813Zm59.292,90.445q-.11-2.511-.223-5.02A4.783,4.783,0,0,0,936.785,3236.258Zm9.892-156.376c3.2-12.336,7.287-24.336,11.606-36.291a23.946,23.946,0,0,1,.638-2.676c6.958-22.266,11.651-45.046,15.193-68.065,2.308-14.993,4.194-30.049,6.222-45.083a9.3,9.3,0,0,0-.463-4.237c-.152.754-.314,1.509-.453,2.268-2.5,13.608-7.118,26.54-12.213,39.354-2.238,5.626-3.784,11.53-5.627,17.313-3.131,9.832-6.181,19.688-9.391,29.494-4.787,14.62-9.821,29.167-12.542,44.363-2.141,11.953-4.068,23.943-6.25,35.888-1.124,6.164-2.706,12.247-3.87,18.406a50.681,50.681,0,0,0-.883,9.046c-.058,10.935-.218,21.88.19,32.8a209.071,209.071,0,0,0,2.516,22.229,387.8,387.8,0,0,1,6.49-49.655.891.891,0,0,1-.3-.861A436.919,436.919,0,0,1,946.678,3079.882Zm-11.036,145.688q-1.473-12.185-2.946-24.371C931.68,3209.5,934.072,3217.5,935.641,3225.571Zm38.3-316.2a5.412,5.412,0,0,0-.833,1.607c-11.274,24.462-23.1,48.676-32.428,73.991-6.323,17.154-10.224,34.977-14.3,52.731-3.035,13.213-5.756,26.52-8.009,39.885-3.584,21.265-3.992,42.722-2.579,64.221.491,7.476.845,14.969,1.554,22.426a398.609,398.609,0,0,0,11.186,65.179c2.086,7.824,4.037,15.684,6.092,23.515a15.3,15.3,0,0,0,.99,2.4c-1.43-7.6-2.706-15.221-4.344-22.772-4.721-21.751-8.639-43.642-11.241-65.743a229.168,229.168,0,0,1-.8-45.433c.59-7.255.977-14.528,1.364-21.795.78-14.61,3.7-28.887,7.042-43.052,2.46-10.411,5.693-20.642,8.695-30.921,1.585-5.432,3.478-10.775,5.121-16.189,1.855-6.108,3.982-12.1,6.313-18.028a779.589,779.589,0,0,1,27.568-83.223A15.891,15.891,0,0,0,973.939,2909.374Zm6.776-9.285q-10.433,27.65-19.622,55.718c.041-.094.081-.188.119-.284l.01.008c-.329,7.182-3.083,13.763-5.118,20.517a50.174,50.174,0,0,1-2.488,6.2q-1.8,3.952-3.448,7.958c-.235.767-.476,1.531-.708,2.3a.848.848,0,0,1-.4.507c-7.13,17.836-12.365,36.319-17.238,54.864-5.25,19.974-8.961,40.322-9.558,61.094-.332,11.537-.845,23.067-1.147,34.6-.395,15.065,2.053,29.879,4.372,44.681q2.483,15.859,6.113,31.573a7.857,7.857,0,0,0,.248-1.65c-.843-13.125-1.638-26.257-2.595-39.373-.851-11.707-2.144-23.389-2.772-35.107-.673-12.539-.716-25.112,1.549-37.553,2.969-16.329,6.045-32.638,8.991-48.972,2.741-15.2,7.606-29.8,12.434-44.413,3.3-10,6.389-20.06,9.7-30.051,2.989-9.028,5.981-18.065,9.285-26.981a168.312,168.312,0,0,0,7.378-25.019c1.167-5.751,2.59-11.454,4.058-17.137C981.027,2909.139,980.973,2904.715,980.715,2900.089Zm2.985-7.788c-.5,1.3-1.008,2.6-1.5,3.908a27.4,27.4,0,0,0,.23,4.1C984.469,2897.138,984.067,2894.653,983.7,2892.3ZM951.98,3106.6c8.761-29.061,17.1-58.249,24.161-87.785a331.687,331.687,0,0,0,8.054-50.3c.949-11.691,1.734-23.416,1.952-35.139a209.073,209.073,0,0,0-1.691-26.818,34.486,34.486,0,0,0-1.215,4.366c-.327,2.2-.387,4.436-.582,6.652-2.071,23.581-5.293,47.023-9.191,70.359a357.1,357.1,0,0,1-13.684,55.942,14.662,14.662,0,0,1-1.579,2.982c-3.42,11.033-6.468,22.222-9.219,33.483a88.1,88.1,0,0,1-3.177,15.805c-1.678,6.322-3.129,12.686-4.432,19.078-.6,3.06-1.19,6.12-1.755,9.179l-.012.03c-1.9,10.6-3.4,21.265-4.665,31.967-1.805,15.287-2.41,30.646.23,47a28.265,28.265,0,0,0,.7-3.782C936.319,3167.751,942.825,3136.969,951.98,3106.6Zm-14.959,131.1c.091,1.933-.266,3.951,1.07,5.646Q937.556,3240.518,937.021,3237.7Zm8.424,37.762c-1.914-7.061-3.513-14.243-7.328-20.629a28.145,28.145,0,0,0,2.44,13.862c.762,1.845,1.233,3.809,1.995,5.651a13.37,13.37,0,0,0,3.724,5.466C946,3278.357,945.829,3276.878,945.445,3275.458Zm12.241,21.942q-3.881-9.211-7.859-18.376a36.417,36.417,0,0,0-1.987-3.537,23.248,23.248,0,0,0,4.483,16.132q3.174,4.419,6.32,8.86A27.083,27.083,0,0,0,957.686,3297.4Zm329.725,402.961c-1.306-3.746-2.843-5.563-5.151-6.738C1282.911,3696.1,1284.392,3697.961,1287.411,3700.361Zm-3.28,2.542c-.01-3.415-2.048-4.839-3.708-6.467A9,9,0,0,0,1284.131,3702.9Zm-4.617-13.283-3.25-4.294A6.134,6.134,0,0,0,1279.514,3689.619Zm-123.542-140.832c5.538,5.939,11.768,11.233,17.711,16.793a20.035,20.035,0,0,0-2.321-3.694q-13.817-14.876-27.783-29.608a11.075,11.075,0,0,0-2.278-1.546C1146.152,3536.784,1150.694,3543.131,1155.971,3548.788Zm-14.911-18.309c-1.321-3.536-4.371-5.6-6.9-8.115A22.515,22.515,0,0,0,1141.06,3530.479ZM1056,3275.864c.486,19.2.613,38.417,1.658,57.586a254.822,254.822,0,0,0,8.857,52.523c1.271,4.708,2.721,9.368,4.1,14.049a34.213,34.213,0,0,0-.5-4.362,449.525,449.525,0,0,1-9.495-68.361q-1.925-29.007-4.379-58.064C1056.152,3271.444,1055.941,3273.658,1056,3275.864Zm50.2,100.7c1-5.518,2.136-11.014,2.962-16.558,4.03-27.018,8.25-54.01,11.826-81.088,1.665-12.614,2.372-25.388,2.873-38.113.5-12.534.192-25.1.218-37.65.048-21.922-2.554-43.622-5.569-65.28-1.868-13.406-3.88-26.792-6.283-40.173,0,3.126-.215,6.269.038,9.375.96,11.684,2.083,23.359,3.126,35.038.484,5.44.98,10.878,1.375,16.324a777.162,777.162,0,0,1,1.319,80.1c-.121,4.037-.845,8.052-1.073,12.089-.749,13.33-1.167,26.681-2.172,39.991-.59,7.849-1.914,15.655-3.139,23.445a546.785,546.785,0,0,0-6.452,60.322c-.03.706,0,1.412,0,2.121Zm-.405,111.37c-.613-3.531-1.134-7.083-1.858-10.589a201.151,201.151,0,0,1-3.582-53.2c1.109-18.186,2.949-36.317,2.88-54.594-.068-17.86,2.777-35.524,5.523-53.128,2.341-15.021,4.47-29.979,4.579-45.264.083-11.307,1.7-22.6,2.572-33.906.314-4.035.6-8.082.663-12.124.312-20.872.035-41.738-1.309-62.571-.792-12.312-2.24-24.584-3.111-36.895-.714-10.09-1.071-20.207-1.468-30.318-.167-4.229-.028-8.471-.028-14.063-2.865,3.249-4.306,5.7-4.549,8.791-.111,1.413-.1,2.836-.1,4.254-.02,17.425.182,34.852-.124,52.272-.2,11.327-1.1,22.644-1.757,33.961-.456,7.885-1.121,15.757-1.516,23.642-.853,16.99-1.519,33.989-2.407,50.977-.433,8.291-1.208,16.559-1.8,24.841-.317,4.443-.626,8.885-.838,13.333q-1.652,34.591-3.245,69.179c-.083,1.822-.121,3.644-.129,5.467-.054,12.968.058,25.938-.178,38.9a289.189,289.189,0,0,0,2.653,41.195c1.309,10.444,3.035,20.835,4.346,31.279C1101.466,3483.008,1102.79,3485.871,1105.789,3487.929Zm-7.305-8.723c-.549-4.5-.98-9.009-1.691-13.48-3.64-22.838-6-45.75-4.852-68.928.319-6.469.137-12.958.18-19.438.116-18.024.742-36.024,2.311-53.989.319-3.624.357-7.282.41-10.925q.4-27.036,3.152-53.934a114.857,114.857,0,0,0,.4-12.138c-.076-19.056,1.759-38,3.248-56.967.524-6.659.835-13.329,1.346-19.99,1.83-23.848,1.952-47.732,1.65-71.63a25.562,25.562,0,0,0-.486-2.617c-.706,4.066-1.109,6.828-1.678,9.556-1.484,7.123-2.468,14.412-4.691,21.3a280.9,280.9,0,0,0-9.68,40.7c-1.253,7.584-2.835,15.118-4.435,22.635a137.6,137.6,0,0,0-3.025,25.278c-.283,11.527-1.111,23.054-1.04,34.579.114,18.822.744,37.643,1.2,56.465.283,11.738.494,23.479,1.03,35.207.423,9.29,1.324,18.557,1.949,27.839.531,7.87,1.245,15.741,1.4,23.622a330.905,330.905,0,0,0,4.394,46.473c1.425,8.783,2.63,17.612,4.422,26.32C1095,3469.936,1096.94,3474.53,1098.484,3479.207Zm-6.014-9.647c-.537-2.486-1.03-4.982-1.64-7.451a11.615,11.615,0,0,0-1.572-3.542C1089.24,3462.57,1089.648,3466.431,1092.47,3469.56ZM1086.4,3427.9c-1.694-12.243-2.2-24.558-2.739-36.9-.582-13.327-1.969-26.621-3-39.928-.109-1.412-.263-2.825-.3-4.24-.526-22.468-1-44.937-1.572-67.4-.208-8.092-1.007-16.183-.919-24.265.188-17.2.534-34.412,1.339-51.594.294-6.209,2.1-12.342,3.2-18.516,1.906-10.757,3.607-21.559,5.758-32.268a212.627,212.627,0,0,1,5.344-21.159,252.762,252.762,0,0,0,7.067-28.874,30.972,30.972,0,0,0,.018-3.835c-2.719,4.9-4.637,8.647-6.817,12.229-3.189,5.245-5.639,10.69-6.4,16.876a54.241,54.241,0,0,1-2.116,8.849c-6.677,22.4-10.028,45.415-12.8,68.536a101.57,101.57,0,0,0-.395,12.138c.023,19.844-.091,39.694.248,59.536.185,10.918,1.1,21.825,1.818,32.727.881,13.323,1.969,26.629,2.845,39.952,1.342,20.386,2.334,40.805,4.994,61.073,1.131,8.608,3.045,17.116,4.662,25.658a11.711,11.711,0,0,0,1.015,2.515C1087.243,3435.31,1086.906,3431.593,1086.4,3427.9Zm-2.825,4.072a241.145,241.145,0,0,1-4.614-33.63q-1.633-21.772-3.266-43.545c-.957-12.906-1.678-25.833-2.873-38.716-3.19-34.329-2.344-68.748-2.6-103.145-.094-12.826,2.362-25.35,4.376-37.934,2.3-14.364,4.754-28.695,9.265-42.6q-.615-.3-1.23-.6c-1.828,4.234-3.779,8.418-5.457,12.709a303.006,303.006,0,0,0-16.795,63.852c-.749,4.793-1.24,9.642-1.529,14.485-.521,8.687-1.154,17.39-1.083,26.082.081,9.9.866,19.807,1.375,29.706.157,3.03.585,6.053.595,9.08.046,13.585,1.7,27.045,3.022,40.534.575,5.836,1.046,11.683,1.651,17.514a454.829,454.829,0,0,0,9.6,57.418c1.9,8.072,3.242,16.281,5.364,24.291a118.043,118.043,0,0,0,7.827,21.039Q1085.383,3440.246,1083.57,3431.973Zm-3.387,32.676a9.4,9.4,0,0,0-4.609-5.718Q1077.878,3461.792,1080.183,3464.648Zm-4.713-5.823c-.732-2.633-2.569-4.368-4.7-5.869A9.714,9.714,0,0,0,1075.47,3458.825Zm-90.29-87.737a59.039,59.039,0,0,0-6.424-5.69c-8.93-6.045-17.931-11.985-26.92-17.944a.7.7,0,0,1-.309-.1c-5.164-3.317-10.37-6.556-15.554-9.839-.114-.063-.223-.14-.332-.21q-2.578-1.629-5.151-3.256a8.226,8.226,0,0,1-1.433-.906q-46.136-29.049-93.056-56.833-9.849-5.749-19.609-11.64c-2.3-1.362-4.6-2.737-6.9-4.1-9.649-5.7-19.349-11.3-29.036-16.934a479.781,479.781,0,0,0-54.974-25.229c-11.13-4.272-22.1-8.95-33.142-13.466,20.326,10.836,40.292,22.341,60.221,33.893.061.035.058.086.1.13q12.3,6.507,24.566,13.094c13.35,7.193,26.619,14.545,39.948,21.781,8.53,4.633,17.146,9.112,25.649,13.791q13.817,7.6,27.487,15.473c8.938,5.141,17.866,10.31,26.667,15.685,13.464,8.221,26.97,16.389,40.168,25.023,12.2,7.98,24.323,16.018,37.546,22.234C978.2,3367.7,981.685,3369.4,985.18,3371.089Zm-29.188-24.366c-1.413-1.218-2.792-2.476-4.268-3.614a678.206,678.206,0,0,0-64.023-43.8c-20.946-12.614-41.8-25.384-63-37.571-10.135-5.827-20.949-10.479-31.474-15.631a29.029,29.029,0,0,0-3.212-1.169,8.137,8.137,0,0,0,1.511,1.55q2.449,1.559,4.9,3.116c39.505,22.338,78.2,46.23,116.3,70.814,7.685,4.958,15.322,9.993,22.979,15a6.886,6.886,0,0,1,2.625,1.713c.8.526,1.61,1.05,2.412,1.576,2.865.742,5.06,2.866,7.644,4.18C950.922,3344.177,953.461,3345.448,955.993,3346.723ZM809.4,3302c14.1,9.343,28.768,17.653,44.5,23.973a47.193,47.193,0,0,0,4.751,1.443c-1.443-.85-2.868-1.729-4.338-2.527q-21.817-11.822-43.662-23.6a37.474,37.474,0,0,0-3.576-1.533A15.157,15.157,0,0,0,809.4,3302Zm-35.506-24.189a36.326,36.326,0,0,0,3.554,3.119q10.669,7.2,21.445,14.248a23.792,23.792,0,0,0,3.886,1.774c-1.456-1.16-2.876-2.372-4.4-3.432-5.974-4.168-11.96-8.322-18.007-12.379-1.992-1.337-4.184-2.372-6.285-3.547l-2.622-1.571Q772.677,3276.913,773.892,3277.807Zm-36.037-29.261c8.159,5.984,16.284,12.026,24.6,17.782,10.985,7.6,22.158,14.929,33.223,22.411,23.384,15.816,48.529,28.413,73.966,40.463,23.452,11.109,47.889,19.636,72.588,27.481,6.151,1.951,12.067,4.653,18.1,6.984,1.473.57,2.984,1.037,4.478,1.552-3.736-3.8-8.525-5.981-13.2-8.24-16.944-8.187-33.972-16.2-50.946-24.323-12.231-5.852-24.409-11.81-36.642-17.656-10.224-4.883-20.448-9.773-30.752-14.478-21.227-9.692-41.1-21.788-60.973-33.918-10.879-6.64-21.9-13.044-32.917-19.458a33.8,33.8,0,0,0-5.278-2.1A38,38,0,0,0,737.855,3248.546Zm-60.55-46.816c.225.2.448.393.671.587a45.653,45.653,0,0,0,4.275,4.188c17.567,13.345,35.524,26.058,55.12,36.4,11.251,5.934,22.161,12.57,32.9,19.407,23.4,14.9,47.114,29.144,72.679,40.11,7.242,3.106,14.213,6.833,21.326,10.238q33.374,15.97,66.774,31.9a30.337,30.337,0,0,0,3.164,1.154,28.954,28.954,0,0,0-3.883-3.309q-21.513-13.1-43.115-26.059c-1.041-.628-2.157-1.134-3.164-1.806-22.277-14.842-46.461-26.343-69.568-39.719-18.4-10.651-37.29-20.364-56.1-30.253-7.518-3.956-14.858-8.252-22.224-12.494a12.51,12.51,0,0,1-2.309-1.87c-18.65-9.732-37.442-19.2-56.156-28.812Zm254.5,112.876c-30.77-28.682-64.349-53.356-102.437-71.562a387.774,387.774,0,0,0-62.76-23.894c-1.445-.4-2.936-.654-4.409-.959,1.293.754,2.562,1.566,3.906,2.215,21.328,10.3,43.125,19.746,63.906,31.052,33.625,18.3,66.557,37.86,96.927,61.383,2.283,1.77,4.834,3.194,7.277,4.76A22.562,22.562,0,0,0,931.809,3314.607Zm11.024,13c-4.769-3.422-9.4-7.037-14.028-10.643-19.67-15.329-40.725-28.551-61.846-41.774-29.249-18.308-60.036-33.549-91.133-48.274a282.251,282.251,0,0,0-58.879-20.6c-10.649-2.4-21.169-5.359-31.76-8.024-1.473-.37-2.994-.544-4.5-.792,5.057,3.349,10.816,4.778,16.63,6.054l.058-.055c2.3.225,4.5.708,6.164,2.493h0a51.691,51.691,0,0,1,5.827,1.377c38.979,13.92,76.115,32,112.982,50.607,13.173,6.647,25.748,14.519,38.369,22.2,17.468,10.636,34.863,21.4,52.035,32.511,23.839,15.417,46.256,32.782,68.085,50.913a54.5,54.5,0,0,0,5.526,3.693C972.39,3353.484,958.9,3339.136,942.833,3327.607Z" transform="translate(-612.629 -2545.242)"/>
    <path id="Tracé_6090" data-name="Tracé 6090" d="M795.812,2689.083l.076.074Z" transform="translate(-577.35 -2324.986)"/>
    <path id="Tracé_6091" data-name="Tracé 6091" d="M834.6,2663.621q26.776,23.506,51.073,49.468c.167.182.339.359.5.544q20.974,22.448,39.984,46.7a.811.811,0,0,1-1.261,1.018q-4.921-5.878-9.943-11.677a12.169,12.169,0,0,1-4.037-4.609c-.977-1.117-1.964-2.227-2.946-3.339a15.7,15.7,0,0,1-3.913-4.437,880.645,880.645,0,0,0-71.3-71.1C831.248,2664.854,833.071,2662.275,834.6,2663.621Z" transform="translate(-799.889 -2364.554)"/>
    <path id="Tracé_6092" data-name="Tracé 6092" d="M847.562,2686.536l-1.324-1.32Z" transform="translate(-756.665 -2330.909)"/>
    <path id="Tracé_6093" data-name="Tracé 6093" d="M851.405,2682.216c-.44-.443-.884-.885-1.324-1.324C850.522,2681.332,850.965,2681.773,851.405,2682.216Z" transform="translate(-770.236 -2337.528)"/>
    <path id="Tracé_6094" data-name="Tracé 6094" d="M851.888,2681.736l-1.327-1.324Z" transform="translate(-771.933 -2338.263)"/>
    <path id="Tracé_6095" data-name="Tracé 6095" d="M852.366,2681.257l-1.324-1.324Z" transform="translate(-773.629 -2338.999)"/>
    <path id="Tracé_6096" data-name="Tracé 6096" d="M852.847,2680.776l-1.324-1.324Z" transform="translate(-775.328 -2339.733)"/>
    <path id="Tracé_6097" data-name="Tracé 6097" d="M853.327,2680.3c-.44-.444-.883-.884-1.324-1.327C852.444,2679.415,852.887,2679.855,853.327,2680.3Z" transform="translate(-777.023 -2340.47)"/>
    <path id="Tracé_6098" data-name="Tracé 6098" d="M853.81,2679.817l-1.327-1.326Z" transform="translate(-778.72 -2341.204)"/>
    <path id="Tracé_6099" data-name="Tracé 6099" d="M854.289,2679.336q-.664-.661-1.326-1.325Q853.624,2678.673,854.289,2679.336Z" transform="translate(-780.415 -2341.94)"/>
    <path id="Tracé_6100" data-name="Tracé 6100" d="M854.771,2678.857l-1.326-1.327Z" transform="translate(-782.114 -2342.676)"/>
    <path id="Tracé_6101" data-name="Tracé 6101" d="M855.25,2678.377l-1.326-1.327Z" transform="translate(-783.809 -2343.411)"/>
    <path id="Tracé_6102" data-name="Tracé 6102" d="M855.73,2677.9l-1.326-1.326Z" transform="translate(-785.503 -2344.147)"/>
    <path id="Tracé_6103" data-name="Tracé 6103" d="M856.21,2677.415l-1.326-1.326Z" transform="translate(-787.198 -2344.883)"/>
    <path id="Tracé_6104" data-name="Tracé 6104" d="M856.689,2676.936l-1.324-1.326Z" transform="translate(-788.894 -2345.618)"/>
    <path id="Tracé_6105" data-name="Tracé 6105" d="M857.171,2676.457q-.66-.665-1.327-1.329Q856.51,2675.792,857.171,2676.457Z" transform="translate(-790.592 -2346.355)"/>
    <path id="Tracé_6106" data-name="Tracé 6106" d="M857.651,2675.976q-.66-.664-1.326-1.329Q856.99,2675.311,857.651,2675.976Z" transform="translate(-792.287 -2347.091)"/>
    <path id="Tracé_6107" data-name="Tracé 6107" d="M858.131,2675.494l-1.326-1.326Z" transform="translate(-793.982 -2347.826)"/>
    <path id="Tracé_6108" data-name="Tracé 6108" d="M858.612,2675.014q-.66-.664-1.326-1.328Q857.95,2674.35,858.612,2675.014Z" transform="translate(-795.677 -2348.562)"/>
    <path id="Tracé_6109" data-name="Tracé 6109" d="M859.093,2674.535l-1.329-1.33Z" transform="translate(-797.371 -2349.299)"/>
    <path id="Tracé_6110" data-name="Tracé 6110" d="M859.571,2674.053q-.661-.664-1.326-1.328Q858.909,2673.389,859.571,2674.053Z" transform="translate(-799.067 -2350.034)"/>
    <path id="Tracé_6111" data-name="Tracé 6111" d="M860.052,2673.573c-.443-.443-.884-.886-1.327-1.329C859.168,2672.688,859.609,2673.131,860.052,2673.573Z" transform="translate(-800.762 -2350.771)"/>
  </g>
</svg>
