<svg xmlns="http://www.w3.org/2000/svg" width="17.599" height="11.023" viewBox="0 0 17.599 11.023">
  <path id="Tracé_23044" data-name="Tracé 23044" d="M355.609,170.589c-.435-.277-.462-.546-.089-.919l3.38-3.38c.065-.065.126-.134.232-.248H344.716c-.389,0-.583-.162-.574-.476a.428.428,0,0,1,.4-.445,1.78,1.78,0,0,1,.288-.005h14.3c-.115-.122-.182-.2-.253-.269l-3.359-3.36c-.37-.37-.344-.633.089-.92h.288c.091.081.186.158.272.243q2.159,2.156,4.316,4.314c.359.359.356.552-.009.917q-2.137,2.138-4.277,4.272a3.374,3.374,0,0,1-.361.276Z" transform="translate(-343.642 -160.066)" fill="#fff" stroke="#fff" stroke-width="1"/>
</svg>
